<?xml version="1.0" encoding="utf-8"?>
<!-- Generator: Adobe Illustrator 25.3.1, SVG Export Plug-In . SVG Version: 6.00 Build 0)  -->
<svg version="1.1" id="Layer_1" xmlns="http://www.w3.org/2000/svg" xmlns:xlink="http://www.w3.org/1999/xlink" x="0px" y="0px"
	 viewBox="0 0 419.7 252.9" style="enable-background:new 0 0 419.7 252.9;" xml:space="preserve">
<style type="text/css">
	.st0{fill:#001826;}
	.st1{fill:#010900;}
	.st2{fill:#0E0900;}
	.st3{fill:#CC3333;}
	.st4{fill:#090800;}
</style>
<rect x="213.9" y="11.3" class="st0" width="107.3" height="5.4"/>
<rect x="0.8" y="27.9" class="st1" width="7.9" height="56.2"/>
<rect x="9.8" y="238.4" class="st2" width="180.4" height="13.7"/>
<rect x="0.1" y="78.6" class="st3" width="14.4" height="175.5"/>
<rect x="18.1" y="4.4" class="st3" width="262.1" height="9.4"/>
<rect x="409" y="18.1" class="st3" width="10.1" height="107.3"/>
<rect x="6.6" y="-1.3" class="st3" width="7.9" height="56.2"/>
<rect x="312.2" y="228.9" class="st3" width="79.2" height="9.4"/>
<rect x="396.8" y="118.2" class="st3" width="7.9" height="135.4"/>
<rect x="17.4" y="30" class="st3" width="7.9" height="56.2"/>
<rect x="407.2" y="176.7" class="st3" width="4.3" height="78.6"/>
<rect x="414.6" y="129.3" class="st3" width="5" height="106.2"/>
<rect x="154.4" y="245.1" class="st3" width="240.1" height="5.8"/>
<rect x="225.1" y="232.9" class="st3" width="79.2" height="9.4"/>
<rect x="111.3" y="234.1" class="st3" width="79.2" height="9.4"/>
<rect x="402.3" y="-3.7" class="st4" width="2.9" height="260.2"/>
<rect x="312.6" y="10.9" class="st3" width="107.3" height="5.8"/>
<rect x="284.7" y="0.4" class="st3" width="123.8" height="7.6"/>
</svg>
