<?xml version="1.0" encoding="utf-8"?>
<!-- Generator: Adobe Illustrator 25.3.1, SVG Export Plug-In . SVG Version: 6.00 Build 0)  -->
<svg version="1.1" id="Layer_1" xmlns="http://www.w3.org/2000/svg" xmlns:xlink="http://www.w3.org/1999/xlink" x="0px" y="0px"
	 viewBox="0 0 419.7 252.9" style="enable-background:new 0 0 419.7 252.9;" xml:space="preserve">
<style type="text/css">
	.st0{fill:#001826;}
	.st1{fill:#010900;}
	.st2{fill:#0E0900;}
	.st3{fill:#CC3333;}
	.st4{fill:#090800;}
	.st5{fill:#00051C;}
	.st6{fill:#FFE73E;}
	.st7{fill:#00063E;}
	.st8{fill:#FFF451;}
	.st9{fill:#FFF8B6;}
	.st10{fill:#751CFF;}
	.st11{fill:#480051;}
	.st12{fill:#1D1D1B;}
	.st13{fill:#FFFFFF;}
</style>
<g>
	<rect x="836" y="117.8" class="st0" width="107.3" height="5.4"/>
	<rect x="622.9" y="134.4" class="st1" width="7.9" height="56.2"/>
	<rect x="631.9" y="345" class="st2" width="180.4" height="13.7"/>
	<rect x="622.2" y="185.2" class="st3" width="14.4" height="175.5"/>
	<rect x="640.2" y="111" class="st3" width="262.1" height="9.4"/>
	<rect x="1031.1" y="124.7" class="st3" width="10.1" height="107.3"/>
	<rect x="628.6" y="105.2" class="st3" width="7.9" height="56.2"/>
	<rect x="934.3" y="335.5" class="st3" width="79.2" height="9.4"/>
	<rect x="1018.9" y="224.8" class="st3" width="7.9" height="135.4"/>
	<rect x="639.4" y="136.6" class="st3" width="7.9" height="56.2"/>
	<rect x="1029.2" y="283.3" class="st3" width="4.3" height="78.6"/>
	<rect x="1036.7" y="235.9" class="st3" width="5" height="106.2"/>
	<rect x="776.5" y="351.6" class="st3" width="240.1" height="5.8"/>
	<rect x="847.2" y="339.4" class="st3" width="79.2" height="9.4"/>
	<rect x="733.4" y="340.7" class="st3" width="79.2" height="9.4"/>
	<rect x="1024.4" y="102.8" class="st4" width="2.9" height="260.2"/>
	<rect x="934.6" y="117.5" class="st3" width="107.3" height="5.8"/>
	<rect x="906.8" y="107" class="st3" width="123.8" height="7.6"/>
</g>
<g>
	<g>
		<path class="st5" d="M623.4,29c-0.2,2.2,64.5,11.9,142.6,11.3C835.7,39.6,894.7,31,894.6,29c-0.1-1.7-43.2,1.7-122.9,2.1
			C675.5,31.5,623.5,27,623.4,29z"/>
		<path class="st6" d="M623.4,29c0,0.2,0.2,0.3,0.4,0.3c0.2,0.1,0.3,0.1,0.5,0.2c0.3,0.1,0.7,0.2,1,0.3c0.7,0.2,1.4,0.4,2.1,0.5
			c1.4,0.3,2.8,0.6,4.2,0.8c2.8,0.5,5.6,0.9,8.4,1.4c5.6,0.8,11.2,1.5,16.9,2.2c11.3,1.3,22.6,2.3,33.9,3.1
			c22.6,1.6,45.3,2.4,68,2.4c22.7,0,45.4-0.8,68-2.4c11.3-0.8,22.6-1.8,33.9-3.1c5.6-0.6,11.3-1.3,16.9-2.1c2.8-0.4,5.6-0.8,8.4-1.3
			c1.4-0.2,2.8-0.5,4.2-0.8c1.4-0.3,2.8-0.6,4.1-1.1c0.2-0.1,0.3-0.1,0.4-0.2c0.1-0.1,0.1-0.1,0-0.1c-0.1,0-0.1-0.1-0.2-0.1
			c-0.3-0.1-0.7-0.1-1-0.2c-0.7-0.1-1.4-0.1-2.1-0.1c-1.4,0-2.8,0-4.2,0c-2.8,0-5.7,0.1-8.5,0.2l-17,0.6c-11.3,0.4-22.7,0.7-34,1
			c-22.7,0.5-45.4,0.8-68,0.8c-22.7,0-45.4-0.3-68-0.8c-11.3-0.3-22.7-0.6-34-1l-17-0.6l-8.5-0.2c-1.4,0-2.8,0-4.3,0
			c-0.7,0-1.4,0-2.1,0.1c-0.4,0-0.7,0-1.1,0.1c-0.2,0-0.4,0-0.5,0.1C623.6,28.8,623.4,28.8,623.4,29z M623.3,28.9
			c0.1-0.2,0.3-0.2,0.5-0.3c0.2,0,0.3-0.1,0.5-0.1c0.4,0,0.7-0.1,1.1-0.1c0.7,0,1.4-0.1,2.1-0.1c1.4,0,2.8,0,4.3,0l8.5,0.2l17,0.6
			c11.3,0.4,22.7,0.7,34,1c22.7,0.5,45.4,0.7,68,0.7c22.7,0,45.4-0.3,68-0.8c11.3-0.3,22.7-0.6,34-1l17-0.5c2.8-0.1,5.7-0.2,8.5-0.2
			c1.4,0,2.8,0,4.3,0c0.7,0,1.4,0,2.1,0.1c0.4,0,0.7,0.1,1.1,0.2c0.1,0,0.2,0.1,0.3,0.1c0.1,0.1,0,0.3,0,0.3
			c-0.1,0.1-0.3,0.2-0.5,0.3c-1.3,0.5-2.7,0.8-4.1,1.1c-1.4,0.3-2.8,0.5-4.2,0.8c-2.8,0.5-5.6,0.9-8.4,1.3
			c-5.6,0.8-11.2,1.5-16.9,2.1c-11.3,1.2-22.6,2.2-33.9,3.1c-22.6,1.6-45.3,2.5-68,2.5c-22.7,0-45.4-0.8-68-2.5
			c-11.3-0.8-22.6-1.8-33.9-3.1c-5.6-0.6-11.3-1.4-16.9-2.2c-2.8-0.4-5.6-0.9-8.4-1.4c-1.4-0.3-2.8-0.5-4.2-0.8
			c-0.7-0.2-1.4-0.3-2.1-0.5c-0.3-0.1-0.7-0.2-1-0.3c-0.2-0.1-0.3-0.1-0.5-0.2C623.6,29.2,623.4,29.1,623.3,28.9z"/>
	</g>
	<g>
		<path class="st7" d="M651.7-124.9c1.9-12.5,4.5-16.5,5.5-22.8c0.1-0.5,0.3-3.3,0.3-6.5c0.2-21.9-10.1-31.1-5.8-38.9
			c2.4-4.3,12.3-6,32.2-9.6c12.2-2.2,16.2-2.1,16.3-3.4c0.2-2.7-18.3-8.4-37.9-6.2c-8.4,0.9-12.5,1.4-16.2,3.8
			c-13.4,9-7,34.3-4.5,79.4c0.2,4.1,4.6,82.5,7.4,82.3c1.7-0.1,2.2-29.5,2.2-42.7C651.2-110.3,649.9-113.4,651.7-124.9z"/>
		<path class="st6" d="M651.7-124.9c0.7-4.3,1.6-8.6,2.8-12.8c1.2-4.2,2.8-8.4,2.8-12.8c0.2-4.4,0.1-8.8-0.5-13.1
			c-0.6-4.3-1.7-8.6-3-12.8c-0.7-2.1-1.4-4.1-2-6.2c-0.6-2.1-1.2-4.2-1.2-6.5c0-2.2,0.9-4.5,2.7-5.8c1.8-1.3,3.9-2.1,6-2.8
			c4.2-1.3,8.5-2.1,12.8-3c4.3-0.8,8.6-1.6,12.9-2.4c4.3-0.8,8.7-1.3,13-2.1c0.5-0.1,1.1-0.2,1.6-0.4c0.2-0.1,0.5-0.2,0.6-0.5
			c0.1-0.2,0-0.5-0.2-0.7c-0.7-0.8-1.7-1.3-2.7-1.7c-2-0.9-4.1-1.5-6.2-2c-4.2-1.1-8.6-1.7-13-2.1c-4.4-0.3-8.8-0.4-13.1,0
			c-2.2,0.2-4.4,0.4-6.5,0.7c-2.2,0.3-4.3,0.5-6.5,1c-2.1,0.5-4.2,1.3-6,2.5c-1.8,1.3-3.3,2.9-4.4,4.8c-2.2,3.8-2.9,8.2-3.3,12.6
			c-0.3,4.4-0.2,8.8,0,13.1c0.4,8.7,1.3,17.5,2,26.2c0.7,8.7,1.4,17.5,1.8,26.2c1,17.5,2.1,35,3.6,52.4c0.4,4.4,0.8,8.7,1.2,13.1
			c0.2,2.2,0.5,4.4,0.8,6.5c0.2,1.1,0.3,2.2,0.5,3.2c0.2,1.1,0.4,2.2,0.9,3.1c0.1,0.1,0.1,0.2,0.2,0.1c0.1,0,0.1-0.2,0.2-0.3
			c0.1-0.2,0.2-0.5,0.2-0.8c0.1-0.5,0.2-1.1,0.3-1.6c0.1-1.1,0.3-2.2,0.3-3.3c0.2-2.2,0.3-4.4,0.4-6.6c0.2-4.4,0.3-8.8,0.4-13.1
			c0.2-8.8,0.3-17.5,0.1-26.3c-0.1-4.4-0.3-8.8-0.3-13.1C650.6-116.2,651-120.6,651.7-124.9z M651.7-124.9c-0.7,4.3-1,8.7-0.9,13.1
			c0.1,4.4,0.3,8.8,0.4,13.1c0.2,8.8,0.1,17.5,0,26.3c-0.1,4.4-0.2,8.8-0.4,13.1c-0.1,2.2-0.2,4.4-0.4,6.6c-0.1,1.1-0.2,2.2-0.3,3.3
			c-0.1,0.5-0.2,1.1-0.3,1.6c-0.1,0.3-0.1,0.5-0.2,0.8c-0.1,0.1-0.1,0.3-0.3,0.4c-0.1,0.1-0.2,0.1-0.3,0c-0.1-0.1-0.1-0.1-0.2-0.2
			c-0.3-0.5-0.4-1-0.6-1.6c-0.1-0.5-0.2-1.1-0.3-1.6c-0.2-1.1-0.4-2.2-0.5-3.2c-0.3-2.2-0.6-4.3-0.8-6.5c-0.5-4.4-0.9-8.7-1.2-13.1
			c-1.4-17.5-2.6-35-3.6-52.4c-0.5-8.7-1.1-17.5-1.8-26.2c-0.7-8.7-1.5-17.5-2-26.2c-0.2-4.4-0.3-8.8,0.1-13.1
			c0.4-4.3,1.1-8.8,3.3-12.6c1.1-1.9,2.6-3.6,4.4-4.8c1.8-1.3,3.9-2.1,6-2.5c2.1-0.5,4.3-0.8,6.5-1c2.2-0.3,4.3-0.5,6.5-0.7
			c4.4-0.3,8.8-0.3,13.1,0c4.4,0.3,8.7,1,13,2c2.1,0.5,4.2,1.2,6.3,2c1,0.5,2,0.9,2.8,1.8c0.2,0.2,0.3,0.5,0.2,0.8
			c-0.1,0.3-0.4,0.5-0.7,0.6c-0.5,0.2-1.1,0.3-1.6,0.4c-4.3,0.8-8.7,1.3-13,2.1c-4.3,0.8-8.6,1.5-12.9,2.4c-4.3,0.8-8.6,1.7-12.8,3
			c-2.1,0.7-4.2,1.4-5.9,2.7c-1.8,1.3-2.6,3.5-2.7,5.7c-0.1,2.2,0.5,4.3,1.2,6.4c0.6,2.1,1.4,4.2,2,6.2c1.3,4.2,2.4,8.4,3,12.8
			c0.6,4.3,0.7,8.7,0.5,13.1c0,4.4-1.6,8.6-2.8,12.8C653.3-133.5,652.4-129.2,651.7-124.9z"/>
	</g>
	<g>
		<path class="st6" d="M1049.3,42.5c1.2,0,2.1-8.9,6-69.4c1.6-24.8,2.6-41.8,3.1-49.1c4.4-72.3,8.4-114.4-1.2-117
			c-4.2-1.1-7.3,6.6-18.7,7.7c-10.2,1-16.1-4.3-17.8-2.4c-3.2,3.7,21.1,20,28.3,45.6c6,21.3-6,26.8-8.9,66.1
			c-0.6,7.9,0.8,26.8,3.6,64.5C1047.7,40,1048.7,42.5,1049.3,42.5z"/>
		<path class="st6" d="M1049.3,42.4c0.2,0,0.3-0.2,0.3-0.3c0.1-0.1,0.1-0.3,0.2-0.5c0.1-0.3,0.2-0.7,0.2-1c0.1-0.7,0.2-1.3,0.3-2
			c0.2-1.3,0.3-2.7,0.5-4c0.3-2.7,0.5-5.4,0.7-8.1c0.4-5.4,0.8-10.8,1.2-16.1l2.1-32.3l4-64.6c1.3-21.5,2.9-43.1,3.8-64.6
			c0.2-5.4,0.4-10.8,0.3-16.2c0-5.4-0.2-10.8-1-16.1c-0.4-2.6-1-5.4-2.4-7.6c-0.7-1.1-1.9-2-3.2-2.1c-1.3,0-2.5,0.8-3.6,1.5
			c-1.1,0.8-2.2,1.6-3.3,2.3c-1.1,0.7-2.3,1.4-3.5,2c-2.5,1.2-5.1,1.8-7.8,2c-2.7,0.2-5.4,0-8.1-0.6c-1.3-0.3-2.6-0.7-3.9-1.1
			c-1.3-0.4-2.5-0.9-3.9-1.1c-0.3,0-0.7-0.1-1,0c-0.3,0.1-0.6,0.3-0.7,0.6c-0.3,0.6,0,1.3,0.3,1.9c0.6,1.2,1.4,2.3,2.3,3.3
			c1.7,2.1,3.5,4.1,5.3,6.1c7.1,8.1,13.8,16.7,18.1,26.7c1.1,2.5,2,5,2.7,7.6c0.3,1.3,0.7,2.6,0.9,4l0.3,2l0.2,1l0.1,1l0.1,2
			c0,0.7,0,1.4,0,2c0,1.4-0.2,2.7-0.4,4c-0.2,1.3-0.5,2.7-0.8,4c-0.3,1.3-0.6,2.6-1,3.9c-1.5,5.2-3.1,10.3-4.3,15.6
			c-1.3,5.2-2.3,10.5-2.9,15.9c-0.2,1.3-0.4,2.7-0.5,4l-0.4,4c-0.3,2.7-0.4,5.4-0.3,8.1c0.1,5.4,0.4,10.8,0.7,16.2
			c0.7,10.8,1.5,21.5,2.2,32.3l2.5,32.3c0.4,5.4,0.9,10.8,1.4,16.1c0.2,2.7,0.5,5.4,0.8,8.1c0.2,1.3,0.3,2.7,0.5,4
			c0.1,0.7,0.2,1.3,0.3,2c0.1,0.3,0.1,0.7,0.2,1c0,0.2,0.1,0.3,0.2,0.5c0,0.1,0.1,0.2,0.1,0.2l0.1,0.1L1049.3,42.4z M1049.3,42.5
			l-0.1,0l-0.1-0.1c-0.1-0.1-0.1-0.1-0.1-0.2c-0.1-0.2-0.1-0.3-0.2-0.5c-0.1-0.3-0.2-0.7-0.2-1c-0.1-0.7-0.2-1.3-0.3-2
			c-0.2-1.3-0.4-2.7-0.5-4c-0.3-2.7-0.6-5.4-0.8-8.1c-0.5-5.4-1-10.7-1.4-16.1l-2.5-32.3c-0.8-10.8-1.6-21.5-2.3-32.3
			c-0.3-5.4-0.6-10.8-0.7-16.2c0-2.7,0-5.4,0.3-8.1l0.4-4c0.1-1.3,0.3-2.7,0.5-4c0.7-5.4,1.7-10.7,3-15.9c1.2-5.3,2.9-10.4,4.3-15.6
			c0.4-1.3,0.7-2.6,1-3.9c0.3-1.3,0.6-2.6,0.8-4c0.2-1.3,0.4-2.7,0.4-4c0-0.7,0.1-1.3,0-2l-0.1-2l-0.1-1l-0.2-1l-0.3-2
			c-0.2-1.3-0.6-2.6-0.9-3.9c-0.7-2.6-1.6-5.1-2.7-7.6c-4.2-9.9-10.9-18.6-18-26.7c-1.8-2-3.6-4-5.3-6.1c-0.8-1.1-1.7-2.1-2.3-3.3
			c-0.3-0.6-0.6-1.3-0.3-2c0.2-0.3,0.5-0.6,0.8-0.7c0.3-0.1,0.7-0.1,1,0c1.4,0.2,2.6,0.8,3.9,1.2c1.3,0.4,2.6,0.8,3.9,1.1
			c2.6,0.6,5.3,0.8,8,0.6c2.7-0.2,5.3-0.8,7.8-2c1.2-0.6,2.4-1.2,3.5-2c1.1-0.7,2.2-1.6,3.3-2.3c1.1-0.7,2.3-1.5,3.7-1.5
			c1.4,0,2.6,1,3.3,2.1c1.4,2.3,2,5,2.4,7.7c0.8,5.3,0.9,10.8,1,16.1c0,5.4-0.1,10.8-0.3,16.2c-0.8,21.6-2.4,43.1-3.7,64.6
			l-4.1,64.6l-2.2,32.3c-0.4,5.4-0.8,10.8-1.2,16.1c-0.2,2.7-0.5,5.4-0.7,8.1c-0.1,1.3-0.3,2.7-0.5,4c-0.1,0.7-0.2,1.3-0.3,2
			c-0.1,0.3-0.1,0.7-0.2,1c-0.1,0.2-0.1,0.3-0.2,0.5C1049.6,42.3,1049.5,42.4,1049.3,42.5z"/>
	</g>
	<g>
		<path class="st8" d="M653.4-76.4c2.7-28,2.4-23.2,3-30.7c3.7-44.3,2.4-67.5,5.3-67.8c1.8-0.1,4.4,8.5,5.3,15.8
			c1.9,15.6-4.7,18.5-2.6,31.3c1.9,11.5,8.3,15.7,5.5,23.7c-1.4,3.9-3.7,5.2-6,8c-7.8,9.7-4.6,23.5-3.3,34.8c2.9,25-5.7,22.5-5,59.7
			c0.5,25.7,4.1,40.1,0.9,41.1c-3,0.9-10.9-8.5-11.4-18.1c-0.2-4.8,1.4-9.9,1.7-11c1.3-4.2,2.2-4.2,2.9-6.7c2-7.3-4.1-11.7-5.4-20.2
			c-0.8-5.8,4-8.8,3.6-16.3C647.4-47.4,652-61.8,653.4-76.4z"/>
		<path class="st6" d="M653.4-76.4c0.9-9.2,1.8-18.4,2.7-27.6c0.8-9.2,1.5-18.4,2-27.7c0.5-9.2,0.9-18.5,1.3-27.7
			c0.1-2.3,0.2-4.6,0.4-6.9c0.2-2.3,0.3-4.6,0.8-6.9c0.2-0.6,0.3-1.2,0.8-1.6c0.3-0.2,0.7-0.1,0.9,0.1c0.2,0.2,0.4,0.4,0.6,0.7
			c0.7,1,1.1,2.1,1.5,3.2c0.8,2.2,1.4,4.4,1.8,6.7c0.5,2.3,0.9,4.6,1,6.9c0.2,2.3,0.2,4.6,0,6.9c-0.2,2.3-0.7,4.6-1.2,6.8
			c-0.6,2.2-1.2,4.5-1.6,6.7c-0.4,2.3-0.4,4.6-0.2,6.9c0.2,2.3,0.7,4.6,1.4,6.8c0.7,2.2,1.6,4.4,2.5,6.5c0.9,2.1,1.9,4.2,2.4,6.5
			c0.2,1.1,0.3,2.3,0.1,3.5c-0.2,1.2-0.5,2.3-0.9,3.4c-0.4,1.1-1,2.1-1.8,3c-0.7,0.9-1.5,1.7-2.3,2.6c-0.8,0.8-1.6,1.7-2.2,2.6
			c-0.7,0.9-1.3,1.9-1.8,2.9c-1,2.1-1.7,4.3-2.1,6.6c-0.8,4.6-0.6,9.2-0.1,13.8c0.5,4.6,1.3,9.2,1.7,13.8c0.4,4.6,0.4,9.3-0.2,13.9
			c-0.7,4.6-2,9-2.9,13.6c-1.9,9.1-2.2,18.4-2.1,27.6c0.1,9.3,0.7,18.5,1.6,27.7c0.2,2.3,0.4,4.6,0.6,6.9c0.1,1.2,0.1,2.3,0.1,3.5
			c0,1.2,0,2.3-0.4,3.5c-0.1,0.3-0.2,0.6-0.5,0.8c-0.2,0.2-0.5,0.4-0.8,0.4c-0.6,0-1.2-0.2-1.7-0.5c-1-0.6-1.9-1.4-2.7-2.2
			c-1.6-1.7-2.9-3.6-4-5.7c-2.1-4.1-3.3-8.8-2.7-13.5c0.2-2.3,0.7-4.6,1.4-6.8c0.3-1.1,0.7-2.2,1.2-3.3c0.5-1.1,1.1-2,1.6-3.1
			c0.2-0.5,0.4-1.1,0.5-1.6c0.1-0.6,0.2-1.1,0.2-1.7c0-1.1-0.1-2.3-0.4-3.4c-0.6-2.2-1.7-4.3-2.7-6.4c-1-2.1-1.9-4.3-2.4-6.5
			c-0.2-1.1-0.5-2.3-0.3-3.5c0.1-1.2,0.4-2.3,0.8-3.4c0.8-2.2,1.9-4.2,2.5-6.5c0.3-1.1,0.4-2.3,0.5-3.4c0-1.1,0-2.3-0.1-3.5
			c0-4.6,0.5-9.3,1.1-13.8C650.4-58.1,652.5-67.1,653.4-76.4z M653.5-76.4c-0.9,9.2-3,18.3-4.3,27.4c-0.6,4.6-1.1,9.2-1.1,13.8
			c0,1.2,0.1,2.3,0.1,3.5c0,1.2-0.2,2.3-0.5,3.4c-0.5,2.3-1.6,4.3-2.5,6.5c-0.4,1.1-0.7,2.2-0.8,3.3c-0.1,1.1,0.1,2.3,0.4,3.4
			c0.5,2.3,1.4,4.4,2.4,6.5c1,2.1,2.1,4.1,2.7,6.4c0.3,1.1,0.4,2.3,0.4,3.5c0,0.6-0.1,1.2-0.2,1.7c-0.1,0.6-0.3,1.1-0.5,1.7
			c-0.4,1.1-1.1,2-1.6,3.1c-0.5,1-0.8,2.1-1.2,3.2c-0.7,2.2-1.2,4.5-1.4,6.8c-0.6,4.6,0.6,9.3,2.7,13.3c1.1,2,2.4,4,3.9,5.7
			c0.8,0.8,1.7,1.6,2.6,2.2c0.5,0.3,1,0.5,1.6,0.4c0.5,0,0.9-0.5,1.1-1c0.4-1.1,0.4-2.2,0.4-3.4c0-1.2-0.1-2.3-0.1-3.5
			c-0.1-2.3-0.4-4.6-0.6-6.9c-0.8-9.2-1.5-18.5-1.5-27.7c-0.1-9.2,0.3-18.6,2.2-27.6c0.9-4.5,2.2-9,2.9-13.6
			c0.7-4.6,0.6-9.2,0.3-13.8c-0.4-4.6-1.2-9.2-1.6-13.8c-0.5-4.6-0.7-9.3,0.1-13.8c0.4-2.3,1.1-4.5,2.1-6.6c0.6-1,1.1-2,1.8-2.9
			c0.6-1,1.4-1.8,2.2-2.6c0.8-0.8,1.6-1.6,2.3-2.5c0.7-0.9,1.3-1.9,1.7-3c0.4-1.1,0.7-2.2,0.9-3.3c0.1-1.1,0.1-2.3-0.2-3.4
			c-0.4-2.3-1.4-4.4-2.4-6.5c-0.9-2.1-1.8-4.3-2.5-6.5c-0.7-2.2-1.1-4.5-1.4-6.8c-0.2-2.3-0.1-4.6,0.2-6.9c0.4-2.3,1-4.5,1.6-6.8
			c0.6-2.2,1-4.5,1.2-6.8c0.2-2.3,0.2-4.6,0-6.9c-0.2-2.3-0.6-4.6-1-6.8c-0.5-2.3-1.1-4.5-1.8-6.7c-0.4-1.1-0.8-2.2-1.5-3.1
			c-0.2-0.2-0.3-0.5-0.6-0.6c-0.2-0.2-0.5-0.2-0.7-0.1c-0.4,0.3-0.6,0.9-0.7,1.5c-0.5,2.2-0.7,4.6-0.8,6.9c-0.2,2.3-0.3,4.6-0.4,6.9
			c-0.4,9.2-0.8,18.5-1.3,27.7c-0.5,9.2-1.2,18.5-2,27.7C655.3-94.8,654.3-85.6,653.5-76.4z"/>
	</g>
	<g>
		<path class="st9" d="M828.3-181.8c54.4-0.3,100.2-9.2,100-11.3c-0.1-1.5-21.1,1.4-59.5-1.4c-19.5-1.4-25.6-3-41.8-2.7
			c-16.9,0.3-21.9,2.3-40.3,4c-36.1,3.4-58.4-0.2-58.6,1C728-191,770.8-181.5,828.3-181.8z"/>
		<path class="st6" d="M828.3-181.8c16.8-0.1,33.6-1,50.3-2.7c8.4-0.8,16.7-1.8,25-3.1c4.1-0.6,8.3-1.3,12.4-2.1
			c2.1-0.4,4.1-0.8,6.2-1.3c1-0.2,2-0.5,3-0.8c1-0.3,2-0.6,2.9-1.1c0.1-0.1,0.2-0.2,0.2-0.2c0,0-0.1-0.1-0.2-0.2
			c-0.2-0.1-0.5-0.1-0.8-0.1c-0.5,0-1-0.1-1.6-0.1c-1,0-2.1,0-3.1,0l-6.3,0.1c-4.2,0.1-8.4,0.2-12.6,0.1c-8.4,0-16.8-0.2-25.2-0.7
			c-8.4-0.5-16.8-1.1-25.1-2c-4.2-0.4-8.4-0.8-12.5-1.1c-4.2-0.3-8.4-0.3-12.6-0.2c-4.2,0.1-8.4,0.2-12.6,0.6
			c-4.2,0.4-8.3,0.9-12.5,1.5c-8.3,1.2-16.7,2.1-25,2.7c-8.4,0.6-16.8,0.9-25.2,0.8c-4.2,0-8.4-0.1-12.6-0.3l-6.3-0.3l-3.1-0.1
			c-0.5,0-1,0-1.6,0c-0.3,0-0.5,0-0.8,0c-0.1,0-0.3,0-0.3,0.1c0,0,0,0,0,0c0,0,0.1,0.1,0.1,0.1c0.9,0.4,2,0.7,3,0.9
			c1,0.3,2,0.5,3.1,0.7c2,0.5,4.1,0.9,6.2,1.2c4.1,0.8,8.3,1.4,12.4,2.1c8.3,1.2,16.6,2.2,25,3C794.7-182.5,811.5-181.7,828.3-181.8
			z M828.3-181.8c-16.8,0.1-33.6-0.6-50.3-2.1c-8.4-0.8-16.7-1.7-25-2.9c-4.2-0.6-8.3-1.3-12.4-2.1c-2.1-0.4-4.1-0.8-6.2-1.3
			c-1-0.2-2-0.5-3.1-0.7c-1-0.3-2-0.5-3-1c-0.1,0-0.1-0.1-0.2-0.1c-0.1-0.2,0-0.3,0.1-0.3c0.2-0.1,0.3-0.1,0.4-0.1
			c0.3,0,0.5,0,0.8-0.1c0.5,0,1.1,0,1.6,0l3.1,0.1l6.3,0.3c4.2,0.2,8.4,0.3,12.6,0.3c8.4,0,16.8-0.2,25.2-0.8
			c8.4-0.6,16.7-1.5,25-2.7c4.2-0.6,8.3-1.1,12.5-1.5c4.2-0.4,8.4-0.5,12.6-0.6c4.2-0.1,8.4,0,12.6,0.3c4.2,0.2,8.4,0.7,12.5,1.1
			c8.3,0.8,16.7,1.5,25.1,2c8.4,0.4,16.8,0.7,25.2,0.6c4.2,0,8.4-0.1,12.6-0.2l6.3-0.2c1,0,2.1,0,3.2,0c0.5,0,1.1,0,1.6,0.1
			c0.3,0,0.5,0.1,0.8,0.1c0.1,0.1,0.3,0.1,0.4,0.3c0,0.2-0.2,0.3-0.3,0.4c-0.9,0.6-1.9,0.8-3,1.2c-1,0.3-2,0.6-3,0.8
			c-2,0.5-4.1,0.9-6.2,1.3c-4.1,0.8-8.3,1.5-12.4,2.1c-8.3,1.2-16.6,2.2-25,3C861.9-182.7,845.1-181.8,828.3-181.8z"/>
	</g>
	<g>
		<path class="st10" d="M970.5,29.5c28.1,1.2,23.3,1.1,30.8,1.4c44.4,1.3,67.6-1.3,68,1.6c0.2,1.8-8.3,4.8-15.5,6.1
			c-15.4,2.7-18.7-3.7-31.4-0.9c-11.4,2.5-15.2,9.2-23.4,6.7c-4-1.2-5.4-3.4-8.4-5.6c-10.1-7.3-23.7-3.3-34.9-1.4
			c-24.8,4.3-22.8-4.5-59.8-1.7c-25.6,1.9-39.9,6.3-40.9,3.2c-1-3,7.9-11.3,17.4-12.3c4.8-0.5,10,0.8,11.1,1.1
			c4.2,1.1,4.4,2,6.9,2.5c7.4,1.6,11.4-4.8,19.9-6.5c5.8-1.1,9,3.5,16.5,2.7C941.2,25.1,955.9,28.9,970.5,29.5z"/>
		<path class="st6" d="M970.5,29.5c9.2,0.4,18.5,0.8,27.7,1.2c9.2,0.3,18.5,0.5,27.8,0.5c9.3,0,18.5-0.1,27.8-0.2c2.3,0,4.6,0,6.9,0
			c2.3,0.1,4.6,0.1,6.9,0.5c0.6,0.1,1.2,0.2,1.6,0.7c0.2,0.3,0.1,0.7,0,0.9c-0.2,0.3-0.4,0.5-0.6,0.6c-0.9,0.7-2,1.2-3.1,1.7
			c-2.1,0.9-4.4,1.6-6.6,2.2c-2.2,0.6-4.5,1.1-6.8,1.4c-2.3,0.3-4.6,0.5-6.9,0.4c-2.3-0.1-4.6-0.4-6.9-0.9c-2.3-0.5-4.5-1-6.8-1.2
			c-2.3-0.3-4.6-0.2-6.9,0.1c-2.3,0.4-4.5,0.9-6.7,1.7c-2.2,0.8-4.3,1.8-6.3,2.8c-2.1,1-4.1,2.2-6.4,2.7c-1.1,0.3-2.3,0.4-3.5,0.3
			c-1.2-0.1-2.3-0.3-3.4-0.7c-1.1-0.4-2.1-0.9-3.1-1.6c-0.9-0.7-1.8-1.5-2.7-2.2c-0.9-0.7-1.8-1.5-2.8-2.1c-0.9-0.7-2-1.2-3-1.7
			c-2.1-0.9-4.4-1.5-6.7-1.8c-4.6-0.5-9.2-0.1-13.8,0.7c-4.6,0.7-9.1,1.8-13.7,2.4c-4.6,0.6-9.2,0.9-13.9,0.5
			c-4.6-0.4-9.1-1.5-13.7-2.1c-9.2-1.4-18.5-1.2-27.7-0.6c-9.2,0.6-18.4,1.7-27.6,3.1c-2.3,0.3-4.6,0.7-6.9,0.9
			c-1.2,0.1-2.3,0.3-3.5,0.3c-1.2,0-2.3,0.1-3.5-0.2c-0.3-0.1-0.6-0.2-0.8-0.4c-0.2-0.2-0.4-0.5-0.4-0.8c-0.1-0.6,0.1-1.2,0.4-1.7
			c0.5-1.1,1.3-2,2.1-2.8c1.6-1.7,3.5-3.1,5.5-4.3c4-2.4,8.6-3.8,13.3-3.5c2.3,0.1,4.6,0.5,6.9,1c1.1,0.3,2.2,0.6,3.3,1
			c1.1,0.4,2.1,1,3.2,1.4c0.5,0.2,1.1,0.3,1.7,0.4c0.6,0.1,1.1,0.1,1.7,0.1c1.1,0,2.3-0.2,3.4-0.6c2.2-0.7,4.2-1.9,6.2-3
			c2-1.1,4.1-2.1,6.4-2.7c1.1-0.3,2.3-0.6,3.4-0.5c1.2,0,2.3,0.3,3.4,0.6c2.2,0.7,4.3,1.7,6.6,2.1c1.1,0.2,2.3,0.3,3.4,0.3
			c1.1-0.1,2.3-0.2,3.5-0.2c4.6-0.3,9.3-0.1,13.9,0.4C952.1,27.5,961.2,29.1,970.5,29.5z M970.5,29.6c-9.3-0.4-18.4-2-27.6-2.8
			c-4.6-0.4-9.2-0.6-13.9-0.3c-1.2,0.1-2.3,0.2-3.5,0.2c-1.2,0-2.3,0-3.5-0.3c-2.3-0.4-4.4-1.4-6.6-2.1c-1.1-0.3-2.2-0.6-3.4-0.6
			c-1.2,0-2.3,0.3-3.4,0.5c-2.2,0.6-4.3,1.6-6.3,2.7c-2,1.1-4,2.3-6.2,3c-1.1,0.4-2.3,0.6-3.4,0.6c-0.6,0-1.2,0-1.7-0.1
			c-0.6-0.1-1.2-0.2-1.7-0.4c-1.1-0.4-2.1-1-3.2-1.4c-1.1-0.4-2.2-0.7-3.3-1c-2.2-0.5-4.5-0.9-6.8-1c-4.6-0.3-9.2,1.1-13.2,3.4
			c-2,1.2-3.8,2.6-5.4,4.2c-0.8,0.8-1.5,1.7-2,2.8c-0.2,0.5-0.4,1.1-0.4,1.6c0.1,0.5,0.5,0.9,1.1,1c1.1,0.3,2.3,0.2,3.4,0.2
			c1.2-0.1,2.3-0.2,3.4-0.3c2.3-0.3,4.6-0.6,6.9-0.9c9.2-1.3,18.4-2.5,27.6-3.1c9.2-0.6,18.5-0.7,27.7,0.7c4.6,0.7,9.1,1.7,13.7,2.2
			c4.6,0.4,9.2,0.1,13.8-0.5c4.6-0.6,9.1-1.7,13.7-2.4c4.6-0.7,9.2-1.2,13.8-0.6c2.3,0.3,4.6,0.9,6.7,1.8c1,0.5,2.1,1,3,1.7
			c1,0.6,1.9,1.3,2.8,2.1c0.9,0.8,1.7,1.5,2.7,2.2c0.9,0.7,2,1.2,3.1,1.6c1.1,0.4,2.2,0.6,3.4,0.7c1.1,0,2.3,0,3.4-0.3
			c2.2-0.6,4.3-1.7,6.4-2.7c2.1-1.1,4.1-2.1,6.3-2.9c2.2-0.8,4.4-1.4,6.7-1.7c2.3-0.3,4.6-0.4,6.9-0.1c2.3,0.2,4.6,0.8,6.8,1.2
			c2.3,0.5,4.6,0.8,6.9,0.9c2.3,0.1,4.6-0.1,6.9-0.4c2.3-0.3,4.5-0.8,6.8-1.4c2.2-0.6,4.4-1.3,6.6-2.2c1.1-0.5,2.1-0.9,3-1.6
			c0.2-0.2,0.4-0.4,0.6-0.6c0.2-0.2,0.2-0.5,0-0.7c-0.3-0.4-1-0.5-1.5-0.6c-2.3-0.4-4.6-0.4-6.9-0.5c-2.3,0-4.6,0-6.9,0
			c-9.3,0.1-18.5,0.2-27.8,0.2c-9.3,0-18.5-0.2-27.8-0.5C989,30.4,979.7,29.9,970.5,29.6z"/>
	</g>
	<g>
		<path class="st3" d="M742.7-206.5c-54.3,3.4-99.5,15-99.2,17.1c0.4,2.6,29.4,4.8,59.5-2.1c20.7-4.7,23.7-9.6,40.2-9.9
			c17-0.3,20.6,4.7,41.6,3.7c10.5-0.5,11.9-2,28.8-3.2c18.7-1.2,29.5-0.4,29.6-1.2C843.3-203.1,800.1-210.1,742.7-206.5z"/>
		<path class="st6" d="M742.7-206.5c-16.8,1.1-33.6,3-50.2,5.6c-8.3,1.3-16.6,2.8-24.9,4.6c-4.1,0.9-8.2,1.8-12.3,2.9
			c-2,0.5-4.1,1.1-6.1,1.7c-1,0.3-2,0.6-3,1c-0.5,0.2-1,0.4-1.5,0.6c-0.2,0.1-0.5,0.2-0.7,0.4c-0.2,0.1-0.5,0.3-0.4,0.5
			c0.1,0.2,0.3,0.4,0.5,0.5c0.2,0.1,0.5,0.2,0.7,0.3c0.5,0.2,1,0.3,1.5,0.4c1,0.2,2.1,0.4,3.1,0.5c2.1,0.3,4.2,0.4,6.3,0.5
			c4.2,0.2,8.4,0.2,12.6,0.1c8.4-0.3,16.8-1.2,25.1-2.6c8.3-1.4,16.5-3.4,24.5-6.1c4-1.4,7.9-2.9,12-4c4.1-1.1,8.3-1.5,12.5-1.7
			c4.2-0.1,8.4,0.1,12.6,0.7c4.2,0.6,8.3,1.6,12.4,2.2c4.2,0.6,8.4,0.9,12.6,0.9c4.2,0,8.4-0.2,12.6-0.8c4.2-0.6,8.3-1.3,12.5-1.8
			c4.2-0.4,8.4-0.7,12.6-1c4.2-0.2,8.4-0.4,12.6-0.5l6.3-0.1l3.2,0c0.5,0,1.1,0,1.6-0.1c0.5,0,1.1,0,1.5-0.2c0.2,0-0.2-0.1-0.4-0.2
			c-0.2-0.1-0.5-0.1-0.8-0.2c-0.5-0.1-1-0.2-1.5-0.3c-1-0.2-2.1-0.4-3.1-0.6c-2.1-0.3-4.2-0.6-6.3-0.9c-4.2-0.5-8.4-1-12.6-1.4
			c-8.4-0.8-16.8-1.3-25.2-1.6C776.4-207.7,759.6-207.5,742.7-206.5z M742.7-206.5c16.8-1.1,33.7-1.4,50.6-0.8
			c8.4,0.3,16.8,0.8,25.2,1.5c4.2,0.4,8.4,0.8,12.6,1.3c2.1,0.3,4.2,0.6,6.3,0.9c1,0.2,2.1,0.4,3.1,0.6c0.5,0.1,1,0.2,1.5,0.3
			c0.3,0.1,0.5,0.1,0.8,0.2c0.1,0,0.3,0.1,0.4,0.2c0.1,0,0.1,0,0.2,0.2c0,0.1,0,0.1,0,0.2c0,0.1-0.1,0.1-0.1,0.1
			c-0.6,0.2-1.1,0.2-1.6,0.2c-0.5,0-1.1,0-1.6,0.1l-3.2,0l-6.3,0.1c-4.2,0.1-8.4,0.2-12.6,0.4c-4.2,0.2-8.4,0.5-12.6,1
			c-4.2,0.4-8.3,1.1-12.5,1.7c-4.2,0.6-8.4,0.8-12.6,0.8c-4.2,0-8.4-0.3-12.6-0.9c-4.2-0.6-8.3-1.6-12.4-2.2
			c-4.2-0.7-8.4-0.9-12.6-0.7c-4.2,0.1-8.4,0.5-12.5,1.6c-4.1,1-8,2.6-12,3.9c-8,2.7-16.2,4.7-24.5,6.1c-8.3,1.4-16.7,2.3-25.1,2.6
			c-4.2,0.2-8.4,0.2-12.6,0c-2.1-0.1-4.2-0.3-6.3-0.5c-1-0.1-2.1-0.3-3.1-0.5c-0.5-0.1-1-0.2-1.5-0.4c-0.3-0.1-0.5-0.2-0.7-0.3
			c-0.2-0.1-0.5-0.3-0.6-0.6c0-0.2,0.1-0.3,0.2-0.4c0.1-0.1,0.2-0.2,0.3-0.2c0.2-0.1,0.5-0.3,0.7-0.4c0.5-0.2,1-0.4,1.5-0.6
			c1-0.4,2-0.7,3-1c2-0.6,4.1-1.2,6.1-1.7c4.1-1.1,8.2-2,12.3-2.9c8.3-1.7,16.6-3.2,24.9-4.5C709.1-203.6,725.9-205.5,742.7-206.5z"
			/>
	</g>
	<g>
		<path class="st11" d="M1062.1-203.7c0.1,1.2-2.5,3.1-7.7,6.8c0,0-4.5,3.2-9.1,5.3c-12.7,5.6-38.1-17.9-64.8-15.4
			c-14.4,1.3-12.7,8.7-31.2,11.5c-15.8,2.4-23.5-1.9-44.5-5.4c-32.5-5.3-53.4-1.4-53.4-2.8c-0.1-2.2,48.2-9.5,105.4-9.5
			C1017.8-213.2,1061.9-209.1,1062.1-203.7z"/>
		<path class="st6" d="M1062.1-203.7c0,0.6-0.4,1.1-0.8,1.5c-0.4,0.4-0.8,0.8-1.2,1.1c-0.9,0.7-1.8,1.4-2.7,2.1
			c-1.8,1.3-3.6,2.7-5.6,3.9c-1.9,1.2-3.9,2.3-5.9,3.3c-0.5,0.3-1,0.4-1.6,0.6c-0.5,0.2-1.1,0.3-1.7,0.4c-1.1,0.1-2.3,0.2-3.4,0.1
			c-2.3-0.2-4.5-0.8-6.6-1.5c-2.2-0.7-4.3-1.5-6.4-2.4l-12.5-5.3c-8.3-3.4-17-6.4-26-7c-4.5-0.2-9.1-0.1-13.4,1.3
			c-2.2,0.7-4.2,1.7-6.1,2.9c-1.9,1.2-3.8,2.5-5.8,3.5c-4,2.1-8.5,3.2-13,3.9c-4.5,0.7-9,0.9-13.5,0.5c-4.5-0.4-8.9-1.4-13.4-2.3
			c-4.4-1-8.8-2-13.3-2.8c-8.9-1.7-17.9-2.8-26.9-3.3c-9-0.6-18.1-0.4-27.1,0c-1.1,0-2.3,0.1-3.4,0c-0.1,0-0.3,0-0.4-0.1
			c-0.1,0-0.2-0.1-0.2-0.2c0-0.1,0.1-0.2,0.1-0.2c0.2-0.2,0.5-0.3,0.8-0.4c0.5-0.2,1.1-0.4,1.6-0.5c2.2-0.6,4.4-1,6.6-1.4
			c4.5-0.8,8.9-1.4,13.4-2c9-1.2,18-2.1,27-2.8c18-1.4,36.1-2.2,54.2-2.2c18.1,0,36.2,0.3,54.2,1.2c9,0.5,18.1,1.1,27.1,2
			c4.5,0.5,9,1,13.4,1.8c2.2,0.4,4.4,0.8,6.6,1.4c1.1,0.3,2.2,0.6,3.2,1.1c0.5,0.2,1,0.5,1.5,0.8
			C1061.6-204.7,1062-204.3,1062.1-203.7z M1062.1-203.7c0-0.6-0.5-1-1-1.3c-0.5-0.3-1-0.6-1.5-0.8c-1-0.4-2.1-0.8-3.2-1.1
			c-2.2-0.6-4.4-1-6.6-1.4c-4.5-0.8-8.9-1.3-13.4-1.8c-9-0.9-18-1.5-27.1-1.9c-18.1-0.9-36.2-1.1-54.2-1.1
			c-18.1,0-36.2,0.8-54.2,2.2c-9,0.7-18,1.6-27,2.7c-4.5,0.6-9,1.2-13.4,2c-2.2,0.4-4.4,0.8-6.6,1.4c-0.5,0.1-1.1,0.3-1.6,0.5
			c-0.3,0.1-0.5,0.2-0.7,0.4c-0.2,0.2,0.1,0.3,0.4,0.3c1.1,0.1,2.2,0,3.4,0c9-0.4,18.1-0.5,27.1,0.1c9,0.6,18,1.7,26.9,3.3
			c4.4,0.8,8.9,1.8,13.3,2.8c4.4,1,8.8,1.9,13.3,2.3c4.5,0.4,9,0.2,13.5-0.5c4.5-0.7,8.9-1.8,12.9-3.9c2-1,3.9-2.3,5.8-3.5
			c1.9-1.2,4-2.2,6.1-2.9c4.4-1.3,9-1.5,13.5-1.3c9.1,0.6,17.8,3.7,26.1,7.1l12.5,5.3c2.1,0.9,4.2,1.7,6.3,2.4
			c2.1,0.7,4.3,1.3,6.6,1.5c1.1,0.1,2.3,0.1,3.4,0c0.6-0.1,1.1-0.2,1.6-0.4c0.5-0.2,1.1-0.4,1.6-0.6c2-1,4-2.1,5.9-3.3
			c1.9-1.2,3.7-2.5,5.6-3.9c0.9-0.7,1.8-1.3,2.7-2.1c0.4-0.4,0.9-0.7,1.2-1.1C1061.7-202.7,1062.1-203.1,1062.1-203.7z"/>
	</g>
</g>
<g>
	<path class="st12" d="M33.1,11.5l0.6-0.3l0.1-2.4l-1.1-0.1c-0.2,0-0.4,0-0.4,0.1l-0.5,2.4l-4.5-1l0.5-3.7l-0.3-3.8l-1.2-0.1
		c-0.2,0-0.3,0.1-0.4,0.3l-0.7,3.5l-0.4,3.4c-1.4-0.1-2.3-0.2-2.5-0.1c-0.1,0.1-0.2,0.3-0.2,0.4c-0.4,0.1-0.9,0.1-0.9,0.2
		c0,0.1,0.5,0.3,0.8,0.4c0,0.1,0,0.4,0.1,0.5c0.1,0.1,1,0.2,2.4,0.5l-0.4,3.4L24,18.7c0,0.2,0.1,0.3,0.3,0.4l1.1,0.1l1.2-3.6
		l0.4-3.7l4.6,0.1l-0.1,2.4c0,0.1,0.2,0.2,0.4,0.2l1.1,0.1l0.5-2.3L33,12l2.7,0.1l0,0L33.1,11.5z"/>
	<path class="st12" d="M75.1,14.5L75.1,14.5l-2.7,0.4l0.5-0.5l-0.8-2.2L71,12.5c-0.2,0.1-0.4,0.2-0.4,0.3l0.4,2.4l-4.5,0.7l-1-3.6
		l-1.7-3.4l-1.1,0.3c-0.2,0.1-0.3,0.2-0.2,0.4l0.7,3.5l0.9,3.3c-1.3,0.4-2.2,0.7-2.3,0.8c-0.1,0.1-0.1,0.4,0,0.5
		C61.5,18,61,18.2,61,18.3c0,0.1,0.5,0.1,0.9,0.1c0,0.1,0.1,0.3,0.3,0.4c0.1,0,1-0.2,2.4-0.5l0.9,3.3l1.2,3.3
		c0.1,0.2,0.2,0.3,0.4,0.2l1.1-0.3L68,21.1l-1-3.6l4.2-1.6l0.8,2.3c0.1,0.1,0.3,0.1,0.5,0.1l1.1-0.3l-0.4-2.3l-0.7-0.2L75.1,14.5z"
		/>
	<path class="st12" d="M55.2,9.4l0.6-0.2L56,6.8l-1.1-0.2c-0.2,0-0.4,0-0.4,0.1l-0.6,2.4l-4.4-1.2L50,4.3l-0.2-3.8l-1.2-0.2
		c-0.2,0-0.3,0.1-0.4,0.3L47.4,4l-0.5,3.4c-1.4-0.1-2.3-0.2-2.5-0.2c-0.1,0.1-0.2,0.3-0.2,0.4c-0.4,0.1-0.9,0-0.9,0.2
		c0,0.1,0.5,0.3,0.8,0.4c0,0.1,0,0.4,0.1,0.5c0.1,0.1,1,0.3,2.4,0.5l-0.5,3.4l-0.2,3.5c0,0.2,0.1,0.3,0.3,0.4l1.1,0.2l1.3-3.6
		l0.6-3.7l4.6,0.2l-0.2,2.4c0,0.1,0.2,0.2,0.4,0.3l1.1,0.2l0.5-2.3l-0.5-0.4l2.7,0.2l0,0L55.2,9.4z"/>
	<path class="st12" d="M108,15.7L108,15.7l-2.7,0.3l0.5-0.5l-0.7-2.3l-1.1,0.3c-0.2,0-0.4,0.2-0.4,0.3l0.3,2.4l-4.5,0.6l-0.9-3.6
		L97,9.8l-1.1,0.3c-0.2,0.1-0.3,0.2-0.2,0.4l0.6,3.5l0.8,3.4c-1.3,0.4-2.2,0.7-2.3,0.7c-0.1,0.1-0.1,0.4-0.1,0.5
		c-0.3,0.2-0.8,0.4-0.8,0.5c0,0.1,0.5,0.1,0.9,0.1c0,0.1,0.1,0.3,0.3,0.4c0.1,0,1.1-0.1,2.4-0.4l0.8,3.4l1.1,3.4
		c0.1,0.2,0.2,0.3,0.4,0.2l1.1-0.3l-0.1-3.8l-0.9-3.6l4.3-1.5l0.8,2.3c0.1,0.1,0.3,0.1,0.5,0.1l1.1-0.3l-0.4-2.3l-0.7-0.2L108,15.7z
		"/>
	<path class="st12" d="M91.3,8.1l0.6-0.2l0.3-2.4l-1.1-0.2c-0.2,0-0.4,0-0.4,0.1L90,7.7l-4.4-1.3l0.7-3.6L86.1-1L85-1.2
		c-0.2,0-0.3,0.1-0.4,0.3l-0.9,3.4l-0.6,3.4c-1.4-0.2-2.3-0.3-2.4-0.2c-0.1,0.1-0.2,0.3-0.2,0.4c-0.4,0.1-0.9,0-0.9,0.2
		c0,0.1,0.5,0.3,0.8,0.5c0,0.1,0,0.4,0.1,0.5c0.1,0.1,1,0.3,2.4,0.6l-0.6,3.4l-0.3,3.5c0,0.2,0,0.3,0.3,0.4l1.1,0.2l1.4-3.6l0.7-3.6
		l4.6,0.3l-0.2,2.4c0,0.1,0.2,0.2,0.4,0.3l1.1,0.2L91.7,9l-0.5-0.4l2.7,0.2l0,0L91.3,8.1z"/>
	<path class="st12" d="M137,13.7L137,13.7l-2.7,0.2l0.5-0.5l-0.7-2.3l-1.1,0.2c-0.2,0-0.4,0.1-0.4,0.3l0.3,2.4l-4.5,0.4l-0.8-3.6
		l-1.5-3.5L125,7.7c-0.2,0-0.3,0.2-0.2,0.4l0.5,3.5l0.7,3.4c-1.3,0.3-2.2,0.6-2.3,0.7c-0.1,0.1-0.1,0.4-0.1,0.5
		c-0.3,0.2-0.8,0.4-0.8,0.5c0,0.1,0.5,0.1,0.9,0.1c0,0.1,0.1,0.3,0.3,0.4c0.1,0.1,1.1-0.1,2.4-0.3l0.7,3.4l1,3.4
		c0.1,0.2,0.2,0.3,0.4,0.3l1.1-0.2l0-3.8l-0.8-3.6l4.3-1.3l0.7,2.3c0,0.1,0.3,0.2,0.4,0.1l1.1-0.2l-0.3-2.4l-0.6-0.2L137,13.7z"/>
	<path class="st12" d="M120.4,7.5l0.7-0.2l0.3-2.3l-1.1-0.2c-0.2,0-0.4,0-0.5,0.1l-0.7,2.3l-4.4-1.4l0.8-3.6l0-3.8l-1.1-0.2
		c-0.2,0-0.3,0.1-0.4,0.2l-1,3.4l-0.7,3.4c-1.4-0.2-2.3-0.3-2.4-0.3c-0.1,0-0.2,0.3-0.3,0.4c-0.4,0-0.9,0-0.9,0.1
		c0,0.1,0.4,0.3,0.8,0.5c0,0.1,0,0.4,0.1,0.5c0.1,0.1,1,0.3,2.4,0.7l-0.7,3.4l-0.4,3.5c0,0.2,0,0.3,0.2,0.4l1.1,0.2l1.5-3.5l0.8-3.6
		l4.5,0.5l-0.3,2.4c0,0.1,0.2,0.2,0.4,0.3l1.1,0.2l0.7-2.3l-0.5-0.5l2.7,0.3l0,0L120.4,7.5z"/>
	<path class="st12" d="M166,14.3L166,14.3l-2.7,0.2l0.5-0.5l-0.6-2.3l-1.1,0.2c-0.2,0-0.4,0.1-0.4,0.3l0.2,2.4l-4.5,0.4l-0.7-3.6
		L155.3,8l-1.1,0.2c-0.2,0-0.3,0.2-0.3,0.4l0.4,3.5l0.7,3.4c-1.3,0.3-2.2,0.6-2.4,0.6c-0.1,0.1-0.1,0.4-0.1,0.5
		c-0.3,0.2-0.8,0.3-0.8,0.5c0,0.1,0.5,0.1,0.9,0.1c0,0.1,0.1,0.4,0.3,0.4c0.1,0,1.1-0.1,2.4-0.3l0.7,3.4l1,3.4
		c0.1,0.2,0.2,0.3,0.4,0.3l1.1-0.2l0-3.8l-0.7-3.6l4.3-1.3l0.7,2.3c0,0.1,0.3,0.2,0.4,0.1l1.1-0.2l-0.3-2.4l-0.6-0.2L166,14.3z"/>
	<path class="st13" d="M149.5,8l0.7-0.2l0.4-2.3l-1.1-0.3c-0.2,0-0.4,0-0.5,0.1l-0.8,2.3l-4.3-1.5l0.8-3.6l0.1-3.8l-1.1-0.3
		c-0.2,0-0.3,0.1-0.4,0.2L142.2,2l-0.8,3.4c-1.4-0.2-2.3-0.4-2.4-0.4c-0.1,0-0.2,0.3-0.3,0.4c-0.4,0-0.9,0-0.9,0.1
		c0,0.1,0.4,0.3,0.8,0.5c0,0.1,0,0.4,0.1,0.5c0.1,0.1,1,0.3,2.3,0.7l-0.8,3.4l-0.5,3.5c0,0.2,0,0.3,0.2,0.4l1.1,0.3l1.6-3.5l0.8-3.6
		l4.5,0.6l-0.3,2.4c0,0.1,0.2,0.2,0.4,0.3l1.1,0.3l0.7-2.3l-0.5-0.5l2.7,0.4l0,0L149.5,8z"/>
	<path class="st12" d="M178.6,8.5l0.7-0.2l0.4-2.3l-1.1-0.3c-0.2,0-0.4,0-0.5,0.1l-0.8,2.3L173,6.6l0.9-3.6l0.1-3.8l-1.1-0.3
		c-0.2,0-0.3,0.1-0.4,0.2l-1.1,3.4l-0.8,3.4c-1.4-0.2-2.3-0.4-2.4-0.4c-0.1,0-0.2,0.3-0.3,0.4c-0.4,0-0.9,0-0.9,0.1
		c0,0.1,0.4,0.3,0.8,0.5c0,0.1,0,0.4,0.1,0.5c0.1,0.1,1,0.3,2.3,0.7l-0.8,3.4l-0.5,3.5c0,0.2,0,0.3,0.2,0.4l1.1,0.3l1.6-3.5l0.9-3.6
		l4.5,0.6l-0.3,2.4c0,0.1,0.2,0.2,0.4,0.3l1.1,0.3l0.7-2.3L178.4,9l2.7,0.4l0,0L178.6,8.5z"/>
	<path class="st12" d="M224.1,15.2L224.1,15.2l-2.7,0.2l0.5-0.5l-0.6-2.3l-1.1,0.2c-0.2,0-0.4,0.1-0.4,0.3l0.3,2.4l-4.5,0.4
		l-0.7-3.6L213.3,9l-1.1,0.2c-0.2,0-0.3,0.2-0.3,0.4l0.4,3.5l0.7,3.4c-1.3,0.3-2.2,0.6-2.4,0.7c-0.1,0.1-0.1,0.4-0.1,0.5
		c-0.3,0.2-0.8,0.3-0.8,0.5c0,0.1,0.5,0.1,0.9,0.1c0,0.1,0.1,0.4,0.3,0.4c0.1,0,1.1-0.1,2.4-0.3l0.7,3.4l1,3.4
		c0.1,0.2,0.2,0.3,0.4,0.3l1.1-0.2l0-3.8l-0.7-3.6l4.3-1.4l0.7,2.3c0,0.1,0.3,0.1,0.4,0.1l1.1-0.2l-0.3-2.4l-0.6-0.2L224.1,15.2z"/>
	<path class="st12" d="M207.6,9l0.7-0.2l0.4-2.3l-1.1-0.3c-0.2,0-0.4,0-0.5,0.1l-0.8,2.3L202,7.1l0.8-3.6l0.1-3.8l-1.1-0.3
		c-0.2,0-0.3,0.1-0.4,0.2L200.3,3l-0.8,3.4c-1.4-0.2-2.3-0.4-2.4-0.4c-0.1,0-0.2,0.3-0.3,0.4c-0.4,0-0.9,0-0.9,0.1
		c0,0.1,0.4,0.3,0.8,0.5c0,0.1,0,0.4,0.1,0.5c0.1,0.1,1,0.3,2.3,0.7l-0.8,3.4l-0.5,3.5c0,0.2,0,0.3,0.2,0.4l1.1,0.3l1.6-3.5l0.8-3.6
		l4.5,0.6l-0.3,2.4c0,0.1,0.2,0.2,0.4,0.3l1.1,0.3L208,10l-0.5-0.5l2.7,0.4l0,0L207.6,9z"/>
	<path class="st12" d="M237.6,9.4l0.7-0.2l0.4-2.3l-1.1-0.3c-0.2,0-0.4,0-0.5,0.1L236.3,9L232,7.5l0.8-3.6l0.1-3.8l-1.1-0.3
		c-0.2,0-0.3,0.1-0.4,0.2l-1.1,3.4l-0.8,3.4c-1.4-0.2-2.3-0.4-2.4-0.4c-0.1,0-0.2,0.3-0.3,0.4c-0.4,0-0.9,0-0.9,0.1
		c0,0.1,0.4,0.3,0.8,0.5c0,0.1,0,0.4,0.1,0.5c0.1,0.1,1,0.3,2.3,0.7l-0.8,3.4l-0.5,3.5c0,0.2,0,0.3,0.2,0.4l1.1,0.3l1.6-3.5l0.8-3.6
		l4.5,0.6l-0.3,2.4c0,0.1,0.2,0.2,0.4,0.3l1.1,0.3l0.7-2.3l-0.5-0.5l2.7,0.4l0,0L237.6,9.4z"/>
	<path class="st12" d="M282.2,15.9L282.2,15.9l-2.7,0.3l0.5-0.5l-0.6-2.3l-1.1,0.2c-0.2,0-0.4,0.2-0.4,0.3l0.3,2.4l-4.5,0.5
		l-0.7-3.6l-1.5-3.5l-1.1,0.2c-0.2,0-0.3,0.2-0.2,0.4l0.4,3.5l0.7,3.4c-1.3,0.4-2.2,0.6-2.4,0.7c-0.1,0.1-0.1,0.4-0.1,0.5
		c-0.3,0.2-0.8,0.3-0.8,0.5c0,0.1,0.5,0.1,0.9,0.1c0,0.1,0.1,0.4,0.3,0.4c0.1,0,1.1-0.1,2.4-0.3l0.7,3.4l1,3.4
		c0.1,0.2,0.2,0.3,0.4,0.2l1.1-0.2l0-3.8l-0.7-3.6l4.3-1.4l0.7,2.3c0,0.1,0.3,0.1,0.5,0.1l1.1-0.2l-0.3-2.3l-0.6-0.2L282.2,15.9z"/>
	<path class="st12" d="M265.7,9.8l0.7-0.2l0.4-2.3L265.6,7c-0.2,0-0.4,0-0.5,0.1l-0.8,2.3L260,7.9l0.8-3.6l0.1-3.8l-1.1-0.3
		c-0.2,0-0.3,0.1-0.4,0.2l-1.1,3.4l-0.8,3.4c-1.4-0.2-2.3-0.4-2.4-0.4c-0.1,0-0.2,0.3-0.3,0.4c-0.4,0-0.9,0-0.9,0.1
		c0,0.1,0.4,0.3,0.8,0.5c0,0.1,0,0.4,0.1,0.5c0.1,0.1,1,0.3,2.3,0.7l-0.8,3.4l-0.5,3.5c0,0.2,0,0.3,0.2,0.4l1.1,0.3l1.6-3.5l0.8-3.6
		l4.5,0.6l-0.3,2.4c0,0.1,0.2,0.2,0.4,0.3l1.1,0.3l0.7-2.3l-0.5-0.5l2.7,0.4l0,0L265.7,9.8z"/>
	<path class="st12" d="M294.7,10l0.7-0.2l0.4-2.3l-1.1-0.2c-0.2,0-0.4,0-0.5,0.1l-0.7,2.3l-4.3-1.5l0.8-3.6l0.1-3.8l-1.1-0.3
		c-0.2,0-0.3,0.1-0.4,0.2l-1.1,3.4l-0.8,3.4c-1.4-0.2-2.3-0.4-2.4-0.3c-0.1,0-0.2,0.3-0.3,0.4c-0.4,0-0.9,0-0.9,0.1
		c0,0.1,0.4,0.3,0.8,0.5c0,0.1,0,0.4,0.1,0.5c0.1,0.1,1,0.3,2.3,0.7l-0.8,3.4l-0.5,3.5c0,0.2,0,0.3,0.2,0.4l1.1,0.3l1.6-3.5l0.8-3.6
		l4.5,0.5l-0.3,2.4c0,0.1,0.2,0.2,0.4,0.3l1.1,0.3l0.7-2.3l-0.5-0.5l2.7,0.4l0,0L294.7,10z"/>
	<path class="st13" d="M340.3,16.2L340.3,16.2l-2.7,0.3l0.5-0.5l-0.7-2.3l-1.1,0.2c-0.2,0-0.4,0.2-0.4,0.3l0.3,2.4l-4.5,0.5
		l-0.8-3.6l-1.5-3.5l-1.1,0.2c-0.2,0-0.3,0.2-0.2,0.4l0.5,3.5l0.7,3.4c-1.3,0.4-2.2,0.6-2.3,0.7c-0.1,0.1-0.1,0.4-0.1,0.5
		c-0.3,0.2-0.8,0.4-0.8,0.5c0,0.1,0.5,0.1,0.9,0.1c0,0.1,0.1,0.3,0.3,0.4c0.1,0,1.1-0.1,2.4-0.3l0.7,3.4l1,3.4
		c0.1,0.2,0.2,0.3,0.4,0.2l1.1-0.2l0-3.8l-0.8-3.6l4.3-1.4l0.7,2.3c0.1,0.1,0.3,0.1,0.5,0.1l1.1-0.2l-0.3-2.3l-0.7-0.2L340.3,16.2z"
		/>
	<path class="st12" d="M323.7,10.2l0.7-0.2l0.3-2.3l-1.1-0.2c-0.2,0-0.4,0-0.5,0.1l-0.7,2.3l-4.3-1.4l0.8-3.6l0.1-3.8l-1.1-0.3
		c-0.2,0-0.3,0.1-0.4,0.2l-1,3.4l-0.8,3.4c-1.4-0.2-2.3-0.4-2.4-0.3c-0.1,0-0.2,0.3-0.3,0.4c-0.4,0-0.9,0-0.9,0.1
		c0,0.1,0.4,0.3,0.8,0.5c0,0.1,0,0.4,0.1,0.5c0.1,0.1,1,0.3,2.3,0.7l-0.8,3.4l-0.5,3.5c0,0.2,0,0.3,0.2,0.4l1.1,0.3l1.6-3.5l0.8-3.6
		l4.5,0.5l-0.3,2.4c0,0.1,0.2,0.2,0.4,0.3l1.1,0.2l0.7-2.3l-0.5-0.5l2.7,0.3l0,0L323.7,10.2z"/>
	<path class="st12" d="M370.4,17L370.4,17l-2.7,0.3l0.5-0.5l-0.7-2.3l-1.1,0.3c-0.2,0-0.4,0.2-0.4,0.3l0.3,2.4l-4.5,0.6l-0.8-3.6
		l-1.6-3.5l-1.1,0.3c-0.2,0-0.3,0.2-0.2,0.4l0.5,3.5l0.8,3.4c-1.3,0.4-2.2,0.6-2.3,0.7c-0.1,0.1-0.1,0.4-0.1,0.5
		c-0.3,0.2-0.8,0.4-0.8,0.5c0,0.1,0.5,0.1,0.9,0.1c0,0.1,0.1,0.3,0.3,0.4c0.1,0,1.1-0.1,2.4-0.3l0.8,3.4l1.1,3.4
		c0.1,0.2,0.2,0.3,0.4,0.2l1.1-0.3l-0.1-3.8l-0.8-3.6l4.3-1.5l0.8,2.3c0.1,0.1,0.3,0.1,0.5,0.1l1.1-0.3l-0.4-2.3l-0.7-0.2L370.4,17z
		"/>
	<path class="st12" d="M352.7,10.2l0.6-0.2l0.3-2.3l-1.1-0.2c-0.2,0-0.4,0-0.4,0.1l-0.7,2.3l-4.3-1.4l0.8-3.6l0-3.8l-1.1-0.2
		c-0.2,0-0.3,0.1-0.4,0.2l-1,3.4l-0.7,3.4c-1.4-0.2-2.3-0.4-2.4-0.3c-0.1,0-0.2,0.3-0.3,0.4c-0.4,0-0.9,0-0.9,0.1
		c0,0.1,0.4,0.3,0.8,0.5c0,0.1,0,0.4,0.1,0.5c0.1,0.1,1,0.3,2.3,0.7l-0.7,3.4l-0.5,3.5c0,0.2,0,0.3,0.2,0.4l1.1,0.2l1.5-3.5l0.8-3.6
		l4.5,0.5l-0.3,2.4c0,0.1,0.2,0.2,0.4,0.3l1.1,0.2l0.7-2.3l-0.5-0.5l2.7,0.3l0,0L352.7,10.2z"/>
	<path class="st12" d="M398.1,15.1L398.1,15.1l-2.2,0.4c0.2-0.2,0.3-0.3,0.4-0.5c-0.2-0.7-0.4-1.5-0.7-2.2l-1.1,0.3
		c-0.2,0.1-0.4,0.2-0.4,0.3l0.4,2.4l-4.5,0.7l-0.9-3.6l-1.7-3.4l-1.1,0.3c-0.2,0.1-0.3,0.2-0.2,0.4l0.6,3.5l0.9,3.4
		c-1.3,0.4-2.2,0.7-2.3,0.8c-0.1,0.1-0.1,0.4-0.1,0.5c-0.3,0.2-0.8,0.4-0.8,0.5c0,0.1,0.5,0.1,0.9,0.1c0,0.1,0.1,0.3,0.3,0.4
		c0.1,0,1.1-0.1,2.4-0.4l0.9,3.4l1.2,3.3c0.1,0.2,0.2,0.3,0.4,0.2l1.2-0.3l-0.2-3.8l-0.9-3.6c1.4-0.5,2.9-1.1,4.3-1.6l0.9,2.3
		c0.1,0.1,0.3,0.1,0.5,0.1c0.3-0.1,0.4-0.2,0.7-0.3c-0.1-0.8-0.1-1.6-0.2-2.3L396,16C396.6,15.7,397.3,15.4,398.1,15.1z"/>
	<path class="st12" d="M381.7,9.7l0.6-0.2l0.3-2.4l-1.1-0.2c-0.2,0-0.4,0-0.4,0.1l-0.7,2.3L376,8.1l0.7-3.6l0-3.8l-1.1-0.2
		c-0.2,0-0.3,0.1-0.4,0.3l-1,3.4l-0.7,3.4c-1.4-0.2-2.3-0.3-2.4-0.3c-0.1,0-0.2,0.3-0.3,0.4c-0.4,0-0.9,0-0.9,0.1
		c0,0.1,0.4,0.3,0.8,0.5c0,0.1,0,0.4,0.1,0.5c0.1,0.1,1,0.3,2.3,0.6l-0.7,3.4l-0.4,3.5c0,0.2,0,0.3,0.3,0.4l1.1,0.2l1.5-3.5l0.7-3.6
		l4.5,0.4l-0.2,2.4c0,0.1,0.2,0.2,0.4,0.3l1.1,0.2l0.6-2.3l-0.5-0.4l2.7,0.3l0,0L381.7,9.7z"/>
	<path class="st13" d="M408.5,28.8L408.5,28.8l-0.1-1.3l-0.1-0.7l-0.1-0.5l0.5,0.4c0.8-0.2,1.5-0.5,2.3-0.7l-0.3-1.1
		c0-0.2-0.2-0.3-0.3-0.3c-0.8,0.2-1.6,0.5-2.4,0.7c-0.2-1.2-0.4-2.3-0.6-3.3c1.2-0.8,2.3-1.6,3.5-2.5c1.1-1.1,2.1-2.3,3.1-3.6
		c-0.1-0.4-0.3-0.8-0.4-1.2c-0.1-0.2-0.2-0.2-0.4,0c-1,1-2,1.8-3.1,2.8c-1.1,1-2.1,2-3.2,2.9c-0.4-0.7-0.8-1.1-0.8-1.1
		c-0.1,0-0.4,0.2-0.5,0.4c-0.2-0.1-0.4-0.2-0.5-0.1c-0.1,0.1,0,0.4,0,0.7c-0.1,0.1-0.3,0.4-0.4,0.5c0,0.1,0.2,0.5,0.5,1.2
		c-1.1,0.8-2.2,1.6-3.3,2.4c-1.1,0.8-2.2,1.4-3.3,2.1c-0.2,0.1-0.3,0.2-0.2,0.2c0.1,0,0.2,0,0.3,0l3.8-1.5c1.2-0.6,2.4-1.2,3.5-1.9
		c0.5,0.7,1,1.6,1.5,2.6c-0.8,0.3-1.5,0.6-2.3,0.8c-0.1,0-0.1,0.2-0.1,0.3c0.1,0.2,0.2,0.4,0.3,0.8l2.3-0.4l0.2-0.5
		c0.1,0.2,0.1,0.3,0.2,0.5l0.2,0.6L408.5,28.8z"/>
	<path class="st12" d="M412.1,9.6c0.2,0.2,0.3,0.3,0.4,0.5c0.6-0.5,1.2-1,1.9-1.4c-0.1-0.5-0.3-0.9-0.4-1.3
		c-0.1-0.2-0.3-0.4-0.4-0.4c-0.7,0.4-1.3,0.7-2,1.1c-0.2-0.4-0.6-0.7-0.8-0.6l-0.3-0.1c-0.1,0-0.3-0.1-0.4-0.1
		c-0.3-0.1-0.6-0.2-0.9-0.4c-0.3-0.1-0.6-0.3-1-0.4c1-1.2,2-2.4,3-3.5l2.3-3.7l-0.6-0.4c-0.2-0.1-0.5-0.2-0.8-0.3
		c-0.3-0.1-0.5,0-0.7,0.1c-1.2,1.1-2.2,2.1-3.3,3.3c-1,1.2-1.8,2.5-2.7,3.7c-1.8-0.2-3.1-0.1-3.3,0c-0.2,0.1-0.4,0.3-0.5,0.5
		c-0.6,0.1-1.3,0.2-1.3,0.3c-0.1,0.2,0.6,0.2,1,0.3c-0.1,0.1-0.1,0.4,0,0.5c0.1,0,0.4,0.1,0.9,0.1c0.3,0,0.5,0,0.9,0.1
		c0.3,0.1,0.7,0.1,1.1,0.2c-0.8,1.2-1.5,2.5-2.2,3.7c-0.6,1.3-1.1,2.4-1.6,3.7c-0.1,0.2-0.1,0.3,0.1,0.4l0.8,0.2
		c0.9-1.2,1.9-2.5,3-3.8c0.9-1.3,1.8-2.6,2.8-3.8l1.2,0.1c0.4,0,0.8,0.1,1.1,0.1c0.3,0,0.7,0,1,0c0.2,0,0.3-0.1,0.4-0.1
		c0.2,0,0.4,0.1,0.5,0.3c-0.6,0.6-1.2,1.1-1.7,1.7c-0.1,0.1,0,0.3,0.1,0.4c0.2,0.3,0.3,0.8,0.4,1.2c0.6-0.4,1.2-0.7,1.8-1.1
		c0.1-0.3,0.1-0.6,0.1-0.9c0.3,1,0.5,2,0.7,3l0,0C412.4,11.8,412.3,10.7,412.1,9.6z"/>
	<path class="st12" d="M408.1,65.7L408.1,65.7l-0.2-2.7l0.4,0.5l2.3-0.6l-0.2-1.1c0-0.2-0.1-0.4-0.3-0.4l-2.4,0.2l-0.4-4.5l3.6-0.7
		l3.5-1.5l-0.2-1.1c0-0.2-0.2-0.3-0.4-0.3l-3.5,0.4l-3.4,0.7c-0.3-1.3-0.6-2.2-0.6-2.3c-0.1-0.1-0.4-0.1-0.5-0.1
		c-0.2-0.3-0.3-0.8-0.5-0.8c-0.1,0-0.1,0.5-0.1,0.9c-0.1,0-0.4,0.1-0.4,0.3c0,0.1,0.1,1.1,0.3,2.4l-3.4,0.7l-3.4,0.9
		c-0.2,0.1-0.3,0.2-0.3,0.4l0.2,1.1l3.8,0l3.6-0.7l1.3,4.3l-2.3,0.7c-0.1,0-0.2,0.3-0.1,0.4l0.2,1.1l2.4-0.3l0.2-0.6L408.1,65.7z"/>
	<path class="st12" d="M414.5,43.2l0.2,0.7l2.3,0.4l0.3-1.1c0-0.2,0-0.4-0.1-0.5l-2.3-0.8l1.5-4.4l3.6,0.8l3.8,0.1l0.3-1.2
		c0-0.2-0.1-0.3-0.2-0.4l-3.4-1.1l-3.4-0.7c0.2-1.4,0.4-2.3,0.3-2.5c0-0.1-0.3-0.2-0.4-0.3c0-0.4,0-0.9-0.1-0.9
		c-0.1,0-0.3,0.4-0.5,0.8c-0.1,0-0.4,0-0.5,0.1c-0.1,0.1-0.3,1-0.7,2.4l-3.4-0.7l-3.5-0.4c-0.2,0-0.3,0-0.4,0.2l-0.2,1.1l3.5,1.5
		l3.6,0.8l-0.5,4.6l-2.4-0.3c-0.1,0-0.2,0.2-0.3,0.4l-0.3,1.1l2.3,0.7l0.5-0.5l-0.4,2.7l0,0L414.5,43.2z"/>
	<path class="st12" d="M413.6,86.4l0.2,0.7l2.3,0.4l0.3-1.1c0-0.2,0-0.4-0.1-0.5l-2.3-0.8l1.6-4.3l3.6,0.9l3.8,0.2l0.3-1.1
		c0.1-0.2,0-0.3-0.2-0.4l-3.3-1.2l-3.4-0.9c0.3-1.4,0.4-2.3,0.4-2.4c0-0.1-0.3-0.2-0.4-0.3c0-0.4,0-0.9-0.1-0.9
		c-0.1,0-0.3,0.4-0.5,0.8c-0.1,0-0.4,0-0.5,0.1c-0.1,0.1-0.4,1-0.8,2.3l-3.4-0.9l-3.5-0.6c-0.2,0-0.3,0-0.4,0.2l-0.3,1.1l3.4,1.7
		l3.6,0.9l-0.7,4.5l-2.4-0.4c-0.1,0-0.2,0.2-0.3,0.4l-0.3,1.1l2.2,0.8l0.5-0.5l-0.4,2.7l0,0L413.6,86.4z"/>
	<path class="st12" d="M405.4,118.7L405.4,118.7l-0.1-2.7l0.4,0.5l2.3-0.5l-0.2-1.1c0-0.2-0.1-0.4-0.3-0.4l-2.4,0.2l-0.3-4.5
		l3.6-0.6l3.6-1.4l-0.2-1.1c0-0.2-0.2-0.3-0.4-0.3L408,107l-3.4,0.6c-0.3-1.3-0.5-2.3-0.6-2.4c-0.1-0.1-0.4-0.1-0.5-0.1
		c-0.2-0.3-0.3-0.8-0.5-0.8c-0.1,0-0.1,0.5-0.2,0.9c-0.1,0-0.4,0.1-0.4,0.2c-0.1,0.1,0.1,1.1,0.2,2.4l-3.4,0.6l-3.4,0.9
		c-0.2,0.1-0.3,0.1-0.3,0.4l0.2,1.1l3.8,0.2l3.6-0.6l1.2,4.4l-2.3,0.6c-0.1,0-0.2,0.3-0.1,0.4l0.2,1.1l2.4-0.2l0.2-0.6L405.4,118.7z
		"/>
	<path class="st13" d="M412.3,99.4l0.2,0.7l2.3,0.5l0.3-1.1c0.1-0.2,0-0.4-0.1-0.5l-2.3-0.8l1.6-4.3l3.6,1l3.8,0.2l0.3-1.1
		c0.1-0.2,0-0.3-0.2-0.4l-3.3-1.2l-3.4-0.9c0.3-1.4,0.5-2.3,0.4-2.4c0-0.1-0.3-0.3-0.4-0.3c0-0.4,0.1-0.9-0.1-0.9
		c-0.1,0-0.3,0.4-0.5,0.8c-0.1,0-0.4,0-0.5,0c-0.1,0.1-0.4,1-0.8,2.3l-3.4-0.9l-3.5-0.6c-0.2,0-0.3,0-0.4,0.2l-0.3,1.1l3.4,1.7
		l3.6,1l-0.7,4.5l-2.4-0.4c-0.1,0-0.2,0.2-0.3,0.4L409,99l2.2,0.8l0.5-0.5l-0.5,2.7l0,0L412.3,99.4z"/>
	<path class="st13" d="M403.6,144.7L403.6,144.7l-0.1-2.7l0.4,0.5l2.3-0.5l-0.2-1.1c0-0.2-0.1-0.4-0.3-0.4l-2.4,0.1l-0.2-4.5
		l3.6-0.6l3.6-1.3l-0.2-1.1c0-0.2-0.2-0.3-0.4-0.3l-3.5,0.2l-3.4,0.5c-0.3-1.4-0.5-2.3-0.5-2.4c-0.1-0.1-0.4-0.1-0.5-0.1
		c-0.2-0.3-0.3-0.8-0.4-0.8c-0.1,0-0.1,0.5-0.2,0.9c-0.1,0-0.4,0.1-0.4,0.2c-0.1,0.1,0,1.1,0.2,2.4l-3.4,0.5l-3.4,0.8
		c-0.2,0.1-0.3,0.1-0.3,0.4l0.2,1.1l3.8,0.2l3.6-0.6l1.1,4.4l-2.4,0.6c-0.1,0-0.2,0.2-0.1,0.4l0.2,1.1l2.4-0.2l0.3-0.6L403.6,144.7z
		"/>
	<path class="st12" d="M408.8,158.4l0.2,0.7l2.3,0.5l0.3-1.1c0.1-0.2,0-0.4-0.1-0.5l-2.3-0.9l1.7-4.2l3.5,1l3.8,0.3l0.3-1.1
		c0.1-0.2,0-0.3-0.2-0.4l-3.3-1.3l-3.3-1c0.3-1.3,0.5-2.3,0.5-2.4c0-0.1-0.3-0.3-0.4-0.3c0-0.4,0.1-0.9-0.1-0.9
		c-0.1,0-0.3,0.4-0.5,0.7c-0.1,0-0.4-0.1-0.5,0c-0.1,0.1-0.4,1-0.8,2.3l-3.3-1l-3.5-0.7c-0.2,0-0.3,0-0.4,0.2l-0.3,1.1l3.4,1.8
		l3.5,1l-0.8,4.5l-2.4-0.5c-0.1,0-0.3,0.2-0.3,0.3l-0.3,1.1l2.2,0.8l0.5-0.5l-0.5,2.7l0,0L408.8,158.4z"/>
	<path class="st12" d="M406.2,202.9L406.2,202.9l-0.6-2.7l0.5,0.4l2.2-0.9l-0.4-1.1c-0.1-0.2-0.2-0.3-0.3-0.3l-2.4,0.6l-1-4.4
		l3.5-1.2l3.3-1.9l-0.4-1.1c-0.1-0.2-0.2-0.2-0.4-0.2l-3.4,0.9l-3.3,1.1c-0.5-1.3-0.9-2.2-0.9-2.3c-0.1-0.1-0.4-0.1-0.5,0
		c-0.2-0.3-0.4-0.8-0.6-0.7c-0.1,0,0,0.5,0,0.9c-0.1,0-0.3,0.2-0.4,0.3c0,0.1,0.2,1,0.6,2.4l-3.3,1.1l-3.2,1.4
		c-0.2,0.1-0.3,0.2-0.2,0.4l0.4,1.1l3.8-0.5l3.5-1.2l1.9,4.1l-2.2,1c-0.1,0.1-0.1,0.3-0.1,0.5l0.4,1.1l2.3-0.6l0.1-0.7L406.2,202.9z
		"/>
	<path class="st12" d="M410.3,185.7l0.3,0.6l2.4,0.1l0.1-1.1c0-0.2,0-0.4-0.2-0.4l-2.4-0.5l0.9-4.5l3.7,0.4l3.8-0.4l0.1-1.2
		c0-0.2-0.1-0.3-0.3-0.4l-3.5-0.6l-3.5-0.4c0.1-1.4,0.1-2.3,0-2.4c-0.1-0.1-0.3-0.2-0.4-0.2c-0.1-0.4-0.1-0.9-0.2-0.9
		c-0.1,0-0.2,0.5-0.4,0.8c-0.1,0-0.4,0-0.5,0.1c-0.1,0.1-0.2,1-0.4,2.4l-3.5-0.3l-3.5-0.1c-0.2,0-0.3,0.1-0.4,0.3l-0.1,1.2l3.6,1.1
		l3.7,0.4l0,4.6l-2.4,0c-0.1,0-0.2,0.2-0.2,0.4l-0.1,1.1l2.3,0.4l0.4-0.6l0,2.7l0,0L410.3,185.7z"/>
	<path class="st12" d="M405.1,228.8L405.1,228.8l0.7-1.1l0.5-1c0.1,0.2,0.1,0.4,0.2,0.6c0.8,0.3,1.5,0.5,2.3,0.7
		c0.1-0.3,0.3-0.7,0.4-1c0.1-0.2,0.1-0.4-0.1-0.4c-0.8-0.3-1.6-0.5-2.3-0.8c0.2-0.5,0.5-1.1,0.7-1.6l0.3-0.8c0-0.3-0.1-0.6-0.2-0.9
		c1.2,0,2.4-0.1,3.6-0.2c1.1-0.4,2.2-0.9,3.3-1.5l-0.4-1.4c-0.1-0.3-0.2-0.3-0.4-0.3c-1.1,0.3-2.3,0.6-3.4,0.8
		c-1.1,0.3-2.2,0.6-3.3,0.8c-0.2-0.5-0.4-0.8-0.6-1.2c-0.2-0.4-0.3-0.6-0.3-0.7c-0.1-0.1-0.4-0.1-0.5,0c-0.2-0.3-0.4-0.8-0.6-0.7
		c-0.1,0,0,0.5,0,0.9c-0.1,0-0.3,0.2-0.4,0.3c0,0,0,0.1,0,0.2c0,0.1,0.1,0.3,0.1,0.4c0.1,0.2,0.2,0.6,0.4,1
		c-1.1,0.1-2.3,0.2-3.4,0.2c-1.1,0.1-2.3,0-3.4-0.1c-0.2,0-0.3,0-0.2,0c0.1,0.1,0.2,0.1,0.3,0.2l3.9,0.9c1.3,0.2,2.5,0.3,3.7,0.3
		c0.4,0.5,0.3,1,0.3,1.5c0,0.5-0.1,1-0.1,1.6c-0.8-0.2-1.6-0.4-2.3-0.7c-0.1,0-0.2,0.1-0.2,0.2c0,0.2-0.1,0.4-0.2,0.7
		c0.7,0.4,1.4,0.8,2.1,1.1l0.5-0.3c-0.1,0.3-0.2,0.7-0.3,1.1L405.1,228.8z"/>
	<path class="st12" d="M413.6,214.6l0.3,0.6l2.4,0.1l0.1-1.1c0-0.2,0-0.4-0.2-0.4l-2.4-0.5l0.9-4.5l3.7,0.4l3.8-0.4l0.1-1.2
		c0-0.2-0.1-0.3-0.3-0.4l-3.5-0.6l-3.5-0.4c0.1-1.4,0.1-2.3,0-2.4c-0.1-0.1-0.3-0.2-0.4-0.2c-0.1-0.4-0.1-0.9-0.2-0.9
		c-0.1,0-0.2,0.5-0.4,0.8c-0.1,0-0.4,0-0.5,0.1c-0.1,0.1-0.2,1-0.4,2.4l-3.5-0.3l-3.5-0.1c-0.2,0-0.3,0.1-0.4,0.3l-0.1,1.2l3.6,1.1
		l3.7,0.4l0,4.6l-2.4,0c-0.1,0-0.2,0.2-0.2,0.4l-0.1,1.1l2.3,0.4l0.4-0.6l0,2.7l0,0L413.6,214.6z"/>
	<path class="st12" d="M382.6,243.3L382.6,243.3l1.2-0.4l1.2-0.6l-0.3,0.6c0.4,0.7,0.8,1.3,1.3,2l1-0.6c0.2-0.1,0.3-0.3,0.3-0.4
		l-1.1-2.2l1-0.4l0.9-0.5l1.8-1c0.7,1,1.5,2,2.2,2.9c1,0.8,2,1.6,3,2.4l1-0.8c0.2-0.2,0.2-0.3,0-0.5c-0.7-0.9-1.4-1.9-2.1-2.8
		c-0.8-0.9-1.5-1.8-2.2-2.6c0.9-0.9,1.5-1.5,1.5-1.6c0-0.2-0.1-0.4-0.2-0.5c0.1-0.3,0.4-0.7,0.3-0.8c-0.1-0.1-0.4,0.2-0.7,0.3
		c-0.1-0.1-0.3-0.2-0.4-0.2c-0.1,0-0.7,0.5-1.7,1.3c-0.7-0.9-1.4-1.8-2.1-2.7c-0.7-0.9-1.4-1.7-2.2-2.7c-0.1-0.2-0.2-0.2-0.4-0.1
		l-0.6,0.5l1.5,3.5c0.7,1,1.4,2,2.1,3c-1,0.9-2,1.9-3.1,2.7c-0.5-0.7-0.9-1.3-1.3-2c-0.1-0.1-0.3-0.1-0.4,0l-0.8,0.5l0.9,2.2l0.6,0
		l-1,0.8L382.6,243.3z"/>
	<path class="st13" d="M402.1,244.7l-0.5,0.6l1,2.1l1.2-0.5c0.2-0.1,0.4-0.3,0.4-0.4c-0.2-0.8-0.5-1.6-0.7-2.3
		c1.5-0.6,3.1-1.3,4.6-2c0.6,1.1,1.2,2.2,1.8,3.3l2.5,2.9c0.4-0.3,0.8-0.5,1.2-0.8c0.2-0.2,0.3-0.3,0.2-0.5c-0.5-1.1-1-2.2-1.5-3.3
		c-0.6-1-1.2-2-1.9-3c1.2-1,2-1.7,2.1-1.8c0.1-0.1,0-0.4-0.1-0.5c0.2-0.4,0.6-0.8,0.5-0.9c-0.1-0.1-0.5,0.2-0.9,0.4
		c-0.1-0.1-0.3-0.3-0.4-0.3c-0.1,0-1,0.7-2.2,1.5c-0.6-1-1.3-1.9-2-2.9l-2.3-2.7c-0.1-0.1-0.3-0.2-0.4-0.1c-0.3,0.2-0.6,0.4-0.9,0.6
		c0.5,1.1,1,2.3,1.5,3.5c0.7,1,1.3,2.1,1.9,3.1c-1.3,1-2.6,2-4,2.8l-1.2-2.1c-0.1-0.1-0.3-0.1-0.5,0c-0.3,0.2-0.7,0.3-1,0.5
		c0.3,0.7,0.5,1.5,0.8,2.2l0.7,0.1l-2.6,1.3l0,0L402.1,244.7z"/>
	<path class="st12" d="M371,250.7c-0.2,0.1-0.5,0.2-0.7,0.2l-0.4,2.3c0.4,0.1,0.8,0.2,1.2,0.2c0.2,0,0.4,0,0.5-0.1l0.7-2.3
		c1.6,0.5,3.1,0.8,4.8,1.1c-0.2,1.2-0.3,2.4-0.5,3.7l0.3,3.8l1.4,0.1c0.3,0,0.4-0.1,0.4-0.3c0.3-1.2,0.6-2.4,0.8-3.5
		c0.1-1.2,0.2-2.3,0.3-3.5c1.5,0,2.6,0,2.7-0.1c0.1-0.1,0.2-0.3,0.2-0.5c0.4-0.1,1-0.2,1-0.4c0-0.1-0.5-0.2-0.9-0.3
		c0-0.1,0-0.4-0.2-0.5c-0.1,0-0.4,0-0.8-0.1c-0.5,0-1.1-0.1-1.8-0.2c0.1-1.2,0.1-2.3,0.2-3.5l-0.2-3.5c0-0.2-0.1-0.3-0.3-0.3
		l-1.1-0.1c-0.3,1.2-0.6,2.5-1,3.7c-0.1,1.2-0.2,2.5-0.4,3.7c-1.6,0-3.2,0-4.8-0.2l0.2-2.4c0-0.1-0.2-0.2-0.4-0.3l-1.1-0.2l-0.7,2.3
		l0.5,0.5c-0.9-0.1-1.9-0.3-2.8-0.4l0,0C369.1,250.1,370,250.5,371,250.7z"/>
	<path class="st12" d="M341.8,247.1l-0.7,0.1l-0.6,2.3l1.1,0.4c0.2,0.1,0.4,0.1,0.5-0.1l1-2.2l4.1,1.9L346,253l-0.5,3.8l1.1,0.4
		c0.2,0.1,0.3,0,0.4-0.2l1.4-3.2l1.1-3.3c0.7,0.2,1.2,0.3,1.6,0.4c0.2,0,0.4,0.1,0.5,0.1c0.1,0,0.1,0,0.2,0c0.1,0,0.2-0.3,0.2-0.4
		c0.2,0,0.5,0.1,0.6,0c0.1-0.1-0.2-0.4-0.4-0.6c0-0.1,0.1-0.4,0-0.5c-0.1,0-0.1-0.1-0.5-0.3c-0.4-0.2-0.9-0.4-1.6-0.6l1.1-3.3
		l0.8-3.4c0-0.2,0-0.3-0.2-0.4l-1.1-0.4l-1.9,3.3l-1.2,3.5l-4.4-1l0.6-2.4c0-0.1-0.1-0.3-0.3-0.3l-1.1-0.4l-0.9,2.2l0.5,0.5
		l-2.6-0.6l0,0L341.8,247.1z"/>
	<path class="st12" d="M296.6,236.9L296.6,236.9l2.7-0.5l-0.5,0.5l0.8,2.2l1.1-0.3c0.1,0,0.2-0.1,0.3-0.2c0,0,0.1-0.1,0.1-0.1
		l-0.1-0.6c-0.1-0.6-0.2-1.2-0.2-1.8l0.3,0c1.9,0,3.1,0,4.6,0l0.4,3.7l1.2,3.6l1.2-0.1c0.2,0,0.3-0.2,0.3-0.4l-0.1-3.5l-0.4-3.5
		c1.4-0.2,2.3-0.4,2.4-0.4c0.1-0.1,0.1-0.4,0.1-0.5c0.4-0.2,0.8-0.3,0.8-0.4c0-0.1-0.5-0.1-0.9-0.2c0-0.1-0.1-0.4-0.2-0.4
		c-0.1-0.1-1.1,0-2.4,0.1l-0.4-3.5l-0.7-3.5c0-0.2-0.1-0.3-0.4-0.3l-1.2,0.1l-0.4,3.8l0.4,3.7c-1.4,0.3-2.6,0.6-4.4,0.8l-0.5,0.2
		c-0.3-0.7-0.7-1.5-1.1-2.2c-0.1-0.1-0.4-0.1-0.5-0.1l-1.1,0.3l0.5,2.3l0.7,0.2L296.6,236.9z"/>
	<path class="st12" d="M312.9,243.9l-0.7,0.1l-0.6,2.3l1.1,0.4c0.2,0.1,0.4,0.1,0.5-0.1l1-2.2l4.1,1.9l-1.2,3.5l-0.5,3.8l1.1,0.4
		c0.2,0.1,0.3,0,0.4-0.2l1.4-3.2l1.1-3.3c1.3,0.4,2.2,0.6,2.4,0.6c0.1,0,0.3-0.2,0.3-0.4c0.4,0,0.9,0.1,0.9,0c0-0.1-0.4-0.3-0.7-0.6
		c0-0.1,0.1-0.4,0-0.5c-0.1-0.1-1-0.4-2.3-0.9l1.1-3.3l0.8-3.4c0-0.2,0-0.3-0.2-0.4l-1.1-0.4l-1.9,3.3l-1.2,3.5l-4.4-1l0.6-2.4
		c0-0.1-0.1-0.3-0.3-0.3l-1.1-0.4l-0.9,2.2l0.5,0.5l-2.6-0.6l0,0L312.9,243.9z"/>
	<path class="st12" d="M284.6,243.8l-0.6,0.3l-0.2,2.4l1.1,0.2c0.2,0,0.4,0,0.4-0.1l0.6-2.4l4.4,1.1l-0.5,3.7l0.2,3.8l1.1,0.2
		c0.2,0,0.3-0.1,0.4-0.3l0.8-3.4l0.5-3.4c1.4,0.1,2.3,0.2,2.4,0.1c0.1-0.1,0.2-0.3,0.2-0.4c0.4-0.1,0.9-0.1,0.9-0.2
		c0-0.1-0.5-0.3-0.8-0.4c0-0.1,0-0.4-0.1-0.5c-0.1-0.1-1-0.2-2.4-0.5l0.5-3.4l0.2-3.5c0-0.2-0.1-0.3-0.3-0.4l-1.1-0.2l-1.3,3.6
		l-0.5,3.7l-4.6-0.2l0.1-2.4c0-0.1-0.2-0.2-0.4-0.3l-1.1-0.2l-0.5,2.3l0.5,0.4l-2.7-0.1l0,0L284.6,243.8z"/>
	<path class="st12" d="M238.7,241.2L238.7,241.2l2.7-0.5l-0.5,0.5l0.8,2.2l1.1-0.3c0.2-0.1,0.4-0.2,0.3-0.3l-0.5-2.4l4.5-0.8
		l1.1,3.5l1.8,3.4l1.1-0.3c0.2-0.1,0.2-0.2,0.2-0.4l-0.7-3.5l-1-3.3c1.3-0.5,2.2-0.8,2.3-0.9c0.1-0.1,0.1-0.4,0-0.5
		c0.3-0.2,0.8-0.4,0.7-0.6c0-0.1-0.5,0-0.9-0.1c0-0.1-0.2-0.3-0.3-0.4c-0.1,0-1,0.2-2.4,0.5l-1-3.3l-1.3-3.3
		c-0.1-0.2-0.2-0.3-0.4-0.2l-1.1,0.3l0.3,3.8l1.1,3.5l-4.2,1.7l-0.9-2.3c-0.1-0.1-0.3-0.1-0.5-0.1l-1.1,0.3l0.5,2.3l0.7,0.2
		L238.7,241.2z"/>
	<path class="st12" d="M255.7,246l-0.6,0.3l-0.2,2.4l1.1,0.2c0.2,0,0.4,0,0.4-0.1l0.6-2.4l4.4,1.1l-0.5,3.7l0.2,3.8l1.1,0.2
		c0.2,0,0.3-0.1,0.4-0.3l0.8-3.4l0.5-3.4c1.4,0.1,2.3,0.2,2.4,0.1c0.1-0.1,0.2-0.3,0.2-0.4c0.4-0.1,0.9-0.1,0.9-0.2
		c0-0.1-0.5-0.3-0.8-0.4c0-0.1,0-0.4-0.1-0.5c-0.1-0.1-1-0.2-2.4-0.5l0.5-3.4l0.2-3.5c0-0.2-0.1-0.3-0.3-0.4l-1.1-0.2l-1.3,3.6
		l-0.5,3.7l-4.6-0.2l0.1-2.4c0-0.1-0.2-0.2-0.4-0.3l-1.1-0.2l-0.5,2.3l0.5,0.4l-2.7-0.1l0,0L255.7,246z"/>
	<path class="st12" d="M209.7,243.4L209.7,243.4l2.7-0.5l-0.5,0.5l0.8,2.2l1.1-0.3c0.2-0.1,0.4-0.2,0.3-0.3l-0.5-2.4l4.5-0.8
		l1.1,3.5l1.8,3.4l1.1-0.3c0.2-0.1,0.2-0.2,0.2-0.4l-0.7-3.5l-1-3.3c1.3-0.5,2.2-0.8,2.3-0.9c0.1-0.1,0.1-0.4,0-0.5
		c0.3-0.2,0.8-0.4,0.7-0.6c0-0.1-0.5,0-0.9-0.1c0-0.1-0.2-0.3-0.3-0.4c-0.1,0-1,0.2-2.4,0.5l-1-3.3l-1.3-3.3
		c-0.1-0.2-0.2-0.3-0.4-0.2l-1.1,0.3l0.3,3.8l1.1,3.5l-4.2,1.7l-0.9-2.3c-0.1-0.1-0.3-0.1-0.5-0.1l-1.1,0.3l0.5,2.3l0.7,0.2
		L209.7,243.4z"/>
	<path class="st12" d="M226.7,248.1l-0.6,0.3l-0.2,2.4l1.1,0.2c0.2,0,0.4,0,0.4-0.1l0.6-2.4l4.4,1.1l-0.5,3.7l0.2,3.8l1.1,0.2
		c0.2,0,0.3-0.1,0.4-0.3l0.8-3.4l0.5-3.4c1.4,0.1,2.3,0.2,2.4,0.1c0.1-0.1,0.2-0.3,0.2-0.4c0.4-0.1,0.9-0.1,0.9-0.2
		c0-0.1-0.5-0.3-0.8-0.4c0-0.1,0-0.4-0.1-0.5c-0.1-0.1-1-0.2-2.4-0.5l0.5-3.4l0.2-3.5c0-0.2-0.1-0.3-0.3-0.4l-1.1-0.2l-1.3,3.6
		l-0.5,3.7l-4.6-0.2l0.1-2.4c0-0.1-0.2-0.2-0.4-0.3l-1.1-0.2l-0.5,2.3l0.5,0.4l-2.7-0.1l0,0L226.7,248.1z"/>
	<path class="st12" d="M181.1,243.7L181.1,243.7l2.7-0.1l-0.5,0.4l0.5,2.3l1.1-0.2c0.2,0,0.4-0.1,0.4-0.3l-0.1-2.4l4.5-0.2l0.6,3.6
		l1.3,3.6l1.1-0.2c0.2,0,0.3-0.2,0.3-0.4l-0.2-3.5l-0.5-3.4c0.7-0.1,1.3-0.3,1.6-0.4c0.3-0.1,0.5-0.2,0.5-0.2c0.1-0.1,0.1-0.4,0-0.5
		l0.1-0.1c0.2-0.2,0.4-0.3,0.4-0.5c0-0.1-0.2-0.1-0.4-0.1l-0.1,0c0-0.1-0.1-0.4-0.1-0.4c0,0-0.1,0-0.1,0c0,0-0.1,0-0.1,0
		c-0.1,0-0.2,0-0.3,0c-0.4,0-1,0.1-1.7,0.2l-0.5-3.4l-0.8-3.4c-0.1-0.2-0.1-0.3-0.4-0.3l-1.1,0.2l-0.2,3.8l0.6,3.6l-4.4,1.2
		l-0.6-2.4c0-0.1-0.2-0.2-0.4-0.1l-1.1,0.2l0.2,2.4l0.6,0.3L181.1,243.7z"/>
	<path class="st13" d="M197.8,250.3l-0.6,0.3l-0.2,2.4l1.1,0.2c0.2,0,0.4,0,0.4-0.1l0.6-2.4l4.4,1.1l-0.5,3.7l0.2,3.8l1.1,0.2
		c0.2,0,0.3-0.1,0.4-0.3l0.8-3.4l0.5-3.4c1.4,0.1,2.3,0.2,2.4,0.1c0.1-0.1,0.2-0.3,0.2-0.4c0.4-0.1,0.9-0.1,0.9-0.2
		c0-0.1-0.5-0.3-0.8-0.4c0-0.1,0-0.4-0.1-0.5c-0.1-0.1-1-0.2-2.4-0.5l0.5-3.4l0.2-3.5c0-0.2-0.1-0.3-0.3-0.4l-1.1-0.2l-1.3,3.6
		l-0.5,3.7l-4.6-0.2l0.1-2.4c0-0.1-0.2-0.2-0.4-0.3l-1.1-0.2l-0.5,2.3l0.5,0.4l-1.4-0.1l-1.5-0.1l0,0l0.8,0.1l0.7,0.2L197.8,250.3z"
		/>
	<path class="st12" d="M168.3,248.9l-0.7,0.2l-0.5,2.3l1.1,0.3c0.2,0.1,0.4,0,0.5-0.1l0.9-2.3l4.2,1.7l-1,3.6l-0.3,3.8l1.1,0.3
		c0.2,0.1,0.3,0,0.4-0.2l1.2-3.3l0.9-3.3c1.3,0.3,2.3,0.5,2.4,0.5c0.1,0,0.3-0.3,0.3-0.4c0.4,0,0.9,0.1,0.9-0.1
		c0-0.1-0.4-0.3-0.7-0.5c0-0.1,0.1-0.4,0-0.5c-0.1-0.1-1-0.4-2.3-0.8l0.9-3.3l0.7-3.5c0-0.2,0-0.3-0.2-0.4l-1.1-0.3l-1.8,3.4l-1,3.6
		l-4.5-0.8l0.4-2.4c0-0.1-0.2-0.2-0.3-0.3l-1.1-0.3l-0.8,2.2l0.5,0.5l-2.7-0.5l0,0L168.3,248.9z"/>
	<path class="st12" d="M123.1,240.1L123.1,240.1l2.7-0.1l-0.5,0.4l0.5,2.3l1.1-0.2c0.2,0,0.4-0.1,0.4-0.3l-0.1-2.4l4.5-0.2l0.6,3.6
		l1.3,3.6l1.1-0.2c0.2,0,0.3-0.2,0.3-0.4l-0.2-3.5l-0.5-3.4c1.4-0.3,2.3-0.5,2.4-0.5c0.1-0.1,0.1-0.4,0.1-0.5
		c0.3-0.2,0.8-0.3,0.8-0.4c0-0.1-0.5-0.1-0.9-0.2c0-0.1-0.1-0.4-0.2-0.4c-0.1-0.1-1.1,0-2.4,0.2l-0.5-3.4l-0.8-3.4
		c-0.1-0.2-0.1-0.3-0.4-0.3l-1.1,0.2l-0.2,3.8l0.6,3.6l-4.4,1.2l-0.6-2.4c0-0.1-0.2-0.2-0.4-0.1l-1.1,0.2l0.2,2.4l0.6,0.3
		L123.1,240.1z"/>
	<path class="st12" d="M139.3,247.1l-0.7,0.2l-0.5,2.3l1.1,0.3c0.2,0.1,0.4,0,0.5-0.1l0.9-2.3l4.2,1.7l-1,3.6l-0.3,3.8l1.1,0.3
		c0.2,0.1,0.3,0,0.4-0.2l1.2-3.3l0.9-3.3c1.3,0.3,2.3,0.5,2.4,0.5c0.1,0,0.3-0.3,0.3-0.4c0.4,0,0.9,0.1,0.9-0.1
		c0-0.1-0.4-0.3-0.7-0.5c0-0.1,0.1-0.4,0-0.5c-0.1-0.1-1-0.4-2.3-0.8l0.9-3.3l0.7-3.5c0-0.2,0-0.3-0.2-0.4l-1.1-0.3l-1.8,3.4l-1,3.6
		l-4.5-0.8l0.4-2.4c0-0.1-0.2-0.2-0.3-0.3l-1.1-0.3l-0.8,2.2l0.5,0.5l-2.7-0.5l0,0L139.3,247.1z"/>
	<path class="st12" d="M93.7,241.1L93.7,241.1l2.7-0.5l-0.5,0.5l0.9,2.2l1.1-0.3c0.2-0.1,0.4-0.2,0.3-0.3l-0.5-2.4l4.5-0.9l1.1,3.5
		l1.9,3.3l1.1-0.3c0.2-0.1,0.2-0.2,0.2-0.4l-0.8-3.4l-1-3.3c1.3-0.5,2.2-0.8,2.3-0.9c0.1-0.1,0.1-0.4,0-0.5c0.3-0.2,0.8-0.4,0.7-0.6
		c0-0.1-0.5,0-0.9,0c0-0.1-0.2-0.3-0.3-0.4c-0.1,0-1,0.2-2.4,0.5l-1-3.3l-1.3-3.3c-0.1-0.2-0.2-0.3-0.4-0.2l-1.1,0.3l0.4,3.8
		l1.1,3.5l-4.2,1.8l-0.9-2.2c-0.1-0.1-0.3-0.1-0.5-0.1l-1.1,0.3l0.5,2.3l0.7,0.2L93.7,241.1z"/>
	<path class="st12" d="M110.9,245.6l-0.6,0.3l-0.1,2.4l1.1,0.1c0.2,0,0.4,0,0.4-0.1l0.1-0.6l0.1-0.6c0-0.4,0.1-0.8,0.2-1.2l0.4,0.1
		l0.7,0.4c0.2,0.1,0.6,0.2,0.9,0.4l1.8,0.7l-1,3.6l-0.3,3.8l1.1,0.3c0.2,0.1,0.3,0,0.4-0.2l1.2-3.3l0.9-3.3c1.3,0.3,2.3,0.5,2.4,0.5
		c0.1,0,0.3-0.3,0.3-0.4c0.4,0,0.9,0.1,0.9-0.1c0-0.1-0.4-0.3-0.7-0.5c0-0.1,0.1-0.4,0-0.5c-0.1-0.1-1-0.4-2.3-0.8l0.9-3.3l0.7-3.5
		c0-0.2,0-0.3-0.2-0.4l-1.1-0.3l-1.8,3.4l-1,3.6l-2-0.4l-1-0.2l-0.8-0.2l-0.3,0c0-0.8,0.1-1.6,0.2-2.4c0-0.1-0.2-0.2-0.4-0.2
		l-1.1-0.1l-0.5,2.3l0.5,0.4l-2.7-0.1l0,0L110.9,245.6z"/>
	<path class="st12" d="M64.8,243.8L64.8,243.8l2.7-0.5l-0.5,0.5l0.9,2.2l1.1-0.3c0.2-0.1,0.4-0.2,0.3-0.3l-0.5-2.4l4.5-0.9l1.1,3.5
		l1.9,3.3l1.1-0.3c0.2-0.1,0.2-0.2,0.2-0.4l-0.8-3.4l-1-3.3c1.3-0.5,2.2-0.8,2.3-0.9c0.1-0.1,0.1-0.4,0-0.5c0.3-0.2,0.8-0.4,0.7-0.6
		c0-0.1-0.5,0-0.9,0c0-0.1-0.2-0.3-0.3-0.4c-0.1,0-1,0.2-2.4,0.5l-1-3.3l-1.3-3.3c-0.1-0.2-0.2-0.3-0.4-0.2l-1.1,0.3l0.4,3.8
		l1.1,3.5l-4.2,1.8l-0.9-2.2c-0.1-0.1-0.3-0.1-0.5-0.1l-1.1,0.3l0.5,2.3l0.7,0.2L64.8,243.8z"/>
	<path class="st12" d="M35.9,246.4L35.9,246.4l2.7-0.5l-0.5,0.5l0.9,2.2l1.1-0.3c0.2-0.1,0.4-0.2,0.3-0.3l-0.5-2.4l4.5-0.9l1.1,3.5
		l1.9,3.3l1.1-0.3c0.2-0.1,0.2-0.2,0.2-0.4l-0.8-3.4l-1-3.3c1.3-0.5,2.2-0.8,2.3-0.9c0.1-0.1,0.1-0.4,0-0.5c0.3-0.2,0.8-0.4,0.7-0.6
		c0-0.1-0.5,0-0.9,0c0-0.1-0.2-0.3-0.3-0.4c-0.1,0-1,0.2-2.4,0.5l-1-3.3l-1.3-3.3c-0.1-0.2-0.2-0.3-0.4-0.2l-1.1,0.3l0.4,3.8
		l1.1,3.5l-4.2,1.8l-0.9-2.2c-0.1-0.1-0.3-0.1-0.5-0.1l-1.1,0.3l0.5,2.3l0.7,0.2L35.9,246.4z"/>
	<path class="st12" d="M53,250.9l-0.6,0.3l-0.1,2.4l1.1,0.1c0.2,0,0.4,0,0.4-0.1l0.5-2.4l4.4,1l-0.5,3.7l0.3,3.8l1.1,0.1
		c0.2,0,0.3-0.1,0.4-0.3l0.7-3.5l0.4-3.4c1.4,0.1,2.3,0.2,2.4,0.1c0.1-0.1,0.2-0.3,0.2-0.4c0.4-0.1,0.9-0.1,0.9-0.2
		c0-0.1-0.5-0.3-0.8-0.4c0-0.1,0-0.4-0.1-0.5c-0.1-0.1-1-0.2-2.4-0.5l0.4-3.4l0.1-3.5c0-0.2-0.1-0.3-0.3-0.4l-1.1-0.1l-1.2,3.6
		l-0.5,3.7l-4.6-0.1l0.1-2.4c0-0.1-0.2-0.2-0.4-0.2l-1.1-0.1l-0.5,2.3l0.5,0.4l-2.7-0.1l0,0L53,250.9z"/>
	<path class="st12" d="M13.8,229l-0.2-0.7l-2.4-0.2l-0.2,1.2c0,0.1,0,0.2,0,0.3c0,0.1,0.1,0.2,0.1,0.2c0.8,0.3,1.6,0.6,2.3,0.8
		L13,233l0.6,3.5c-1.3,0.1-2.5,0.2-3.8,0.2L6.2,238l0.3,1l0.2,0.5c0,0.2,0,0.2,0.1,0.3c0,0.2,0.2,0.3,0.4,0.3l3.5-0.4l3.4-0.7
		c0.4,1.4,0.6,2.3,0.7,2.4c0.1,0.1,0.4,0.1,0.5,0.1c0.2,0.3,0.4,0.8,0.5,0.8c0.1,0,0.1-0.5,0.1-0.9c0.1,0,0.4-0.1,0.4-0.3
		c0-0.1-0.1-1.1-0.3-2.5l3.4-0.7l3.4-1c0.2-0.1,0.3-0.2,0.2-0.4l-0.2-1.2l-3.8-0.1l-3.6,0.7l-1.2-3.5l0.1-2c0.8,0,1.6,0,2.4,0
		c0.1,0,0.2-0.2,0.3-0.4l0.2-1.2l-2.3-0.6l-0.4,0.5l0.2-2.8l0,0L13.8,229z"/>
	<path class="st12" d="M17.8,181.5L17.8,181.5l0.4,2.8l-0.5-0.5l-2.2,0.8l0.3,1.1c0.1,0.2,0.2,0.4,0.3,0.4l2.4-0.4l0.7,4.7l-3.6,1
		l-3.4,1.7l0.3,1.2c0.1,0.2,0.2,0.3,0.4,0.2l3.5-0.6l3.4-0.9c0.4,1.4,0.7,2.3,0.8,2.4c0.1,0.1,0.4,0.1,0.5,0
		c0.2,0.3,0.4,0.8,0.5,0.8c0.1,0,0.1-0.5,0.1-0.9c0.1,0,0.3-0.1,0.4-0.3c0-0.1-0.2-1.1-0.4-2.5l3.4-0.9l3.3-1.2
		c0.2-0.1,0.3-0.2,0.2-0.4l-0.3-1.2l-3.8,0.2l-3.6,1l-1.6-4.4l2.3-0.9c0.1-0.1,0.1-0.3,0.1-0.5l-0.3-1.1l-2.3,0.4l-0.2,0.7
		L17.8,181.5z"/>
	<path class="st12" d="M12.5,198.9l-0.2-0.7L9.9,198l-0.2,1.2c0,0.2,0,0.4,0.1,0.5l2.3,0.7l-1.2,4.5l-3.6-0.7l-3.8,0.1l-0.2,1.2
		c0,0.2,0.1,0.3,0.3,0.4l3.4,0.9l3.4,0.6c-0.2,1.4-0.3,2.4-0.2,2.5c0.1,0.1,0.3,0.2,0.4,0.3c0.1,0.4,0,0.9,0.2,0.9
		c0.1,0,0.3-0.5,0.5-0.8c0.1,0,0.4,0,0.5-0.1c0.1-0.1,0.3-1.1,0.6-2.5l3.4,0.6l3.5,0.3c0.2,0,0.3,0,0.4-0.3l0.2-1.2l-3.6-1.4
		l-3.6-0.7l0.3-4.7l2.4,0.2c0.1,0,0.2-0.2,0.3-0.4l0.2-1.2l-2.3-0.6L13,199l0.2-2.8l0,0L12.5,198.9z"/>
	<path class="st12" d="M16.4,151.5L16.4,151.5l0.4,2.8l-0.5-0.5l-2.2,0.8l0.3,1.1c0.1,0.2,0.2,0.4,0.3,0.4l2.4-0.4l0.7,4.7l-3.6,1
		l-3.4,1.7l0.3,1.2c0.1,0.2,0.2,0.3,0.4,0.2l3.5-0.6l3.4-0.9c0.4,1.4,0.7,2.3,0.8,2.4c0.1,0.1,0.4,0.1,0.5,0
		c0.2,0.3,0.4,0.8,0.5,0.8c0.1,0,0.1-0.5,0.1-0.9c0.1,0,0.3-0.1,0.4-0.3c0-0.1-0.2-1.1-0.4-2.5l3.4-0.9l3.3-1.2
		c0.2-0.1,0.3-0.2,0.2-0.4l-0.3-1.2l-3.8,0.2l-3.6,1l-1.6-4.4l2.3-0.9c0.1-0.1,0.1-0.3,0.1-0.5l-0.3-1.1l-2.3,0.4l-0.2,0.7
		L16.4,151.5z"/>
	<path class="st12" d="M11.2,168.9l-0.2-0.7L8.6,168l-0.2,1.2c0,0.2,0,0.4,0.1,0.5l2.3,0.7l-1.2,4.5L6,174.2l-3.8,0.1L2,175.4
		c0,0.2,0.1,0.3,0.3,0.4l3.4,0.9l3.4,0.6c-0.2,1.4-0.3,2.4-0.2,2.5c0.1,0.1,0.3,0.2,0.4,0.3c0.1,0.4,0,0.9,0.2,0.9
		c0.1,0,0.3-0.5,0.5-0.8c0.1,0,0.4,0,0.5-0.1c0.1-0.1,0.3-1.1,0.6-2.5l3.4,0.6l3.5,0.3c0.2,0,0.3,0,0.4-0.3l0.2-1.2l-3.6-1.4
		l-3.6-0.7l0.3-4.7l2.4,0.2c0.1,0,0.2-0.2,0.3-0.4l0.2-1.2l-2.3-0.6l-0.4,0.5l0.2-2.8l0,0L11.2,168.9z"/>
	<path class="st12" d="M9.9,138.9l-0.2-0.7L7.3,138l-0.2,1.2c0,0.2,0,0.4,0.1,0.5l2.3,0.7l-1.2,4.5l-3.6-0.7l-3.8,0.1l-0.2,1.2
		c0,0.2,0.1,0.3,0.3,0.4l3.4,0.9l3.4,0.6c-0.2,1.4-0.3,2.4-0.2,2.5c0.1,0.1,0.3,0.2,0.4,0.3c0.1,0.4,0,0.9,0.2,0.9
		c0.1,0,0.3-0.5,0.5-0.8c0.1,0,0.4,0,0.5-0.1c0.1-0.1,0.3-1.1,0.6-2.5l3.4,0.6l3.5,0.3c0.2,0,0.3,0,0.4-0.3l0.2-1.2l-3.6-1.4
		l-3.6-0.7l0.3-4.7l2.4,0.2c0.1,0,0.2-0.2,0.3-0.4l0.2-1.2l-2.3-0.6l-0.4,0.5l0.2-2.8l0,0L9.9,138.9z"/>
	<path class="st12" d="M13.8,91.4L13.8,91.4l0.4,2.8l-0.5-0.5l-2.2,0.8l0.3,1.1c0.1,0.2,0.2,0.4,0.3,0.4l2.4-0.4l0.7,4.7l-3.6,1
		l-3.4,1.7l0.3,1.2c0.1,0.2,0.2,0.3,0.4,0.2l3.5-0.6l3.4-0.9c0.4,1.4,0.7,2.3,0.8,2.4c0.1,0.1,0.4,0.1,0.5,0
		c0.2,0.3,0.4,0.8,0.5,0.8c0.1,0,0.1-0.5,0.1-0.9c0.1,0,0.3-0.1,0.4-0.3c0-0.1-0.2-1.1-0.4-2.5l3.4-0.9l3.3-1.2
		c0.2-0.1,0.3-0.2,0.2-0.4l-0.3-1.2l-3.8,0.2l-3.6,1l-1.6-4.4l2.3-0.9c0.1-0.1,0.1-0.3,0.1-0.5l-0.3-1.1l-2.3,0.4L14.8,94L13.8,91.4
		z"/>
	<path class="st13" d="M8.6,108.9l-0.2-0.7L6,107.9l-0.2,1.2c0,0.2,0,0.4,0.1,0.5l2.3,0.7L7,114.7l-3.6-0.7l-3.8,0.1l-0.2,1.2
		c0,0.2,0.1,0.3,0.3,0.4l3.4,0.9l3.4,0.6c-0.2,1.4-0.3,2.4-0.2,2.5c0.1,0.1,0.3,0.2,0.4,0.3c0.1,0.4,0,0.9,0.2,0.9
		c0.1,0,0.3-0.5,0.5-0.8c0.1,0,0.4,0,0.5-0.1c0.1-0.1,0.3-1.1,0.6-2.5l3.4,0.6l3.5,0.3c0.2,0,0.3,0,0.4-0.3l0.2-1.2l-3.6-1.4
		L8.7,115l0.3-4.7l2.4,0.2c0.1,0,0.2-0.2,0.3-0.4l0.2-1.2l-2.3-0.6l-0.4,0.5l0.2-2.8l0,0L8.6,108.9z"/>
	<path class="st12" d="M12.5,61.4L12.5,61.4l0.4,2.8l-0.5-0.5l-2.2,0.8l0.3,1.1c0.1,0.2,0.2,0.4,0.3,0.4l2.4-0.4l0.7,4.7l-3.6,1
		l-3.4,1.7l0.3,1.2c0.1,0.2,0.2,0.3,0.4,0.2l3.5-0.6l3.4-0.9c0.4,1.4,0.7,2.3,0.8,2.4c0.1,0.1,0.4,0.1,0.5,0
		c0.2,0.3,0.4,0.8,0.5,0.8c0.1,0,0.1-0.5,0.1-0.9c0.1,0,0.3-0.1,0.4-0.3c0-0.1-0.2-1.1-0.4-2.5l3.4-0.9l3.3-1.2
		c0.2-0.1,0.3-0.2,0.2-0.4l-0.3-1.2l-3.8,0.2l-3.6,1l-1.6-4.4l2.3-0.9c0.1-0.1,0.1-0.3,0.1-0.5L16,62.9l-2.3,0.4L13.4,64L12.5,61.4z
		"/>
	<path class="st12" d="M11.2,31.3L11.2,31.3l0.4,2.8l-0.5-0.5l-2.2,0.8l0.3,1.1c0.1,0.2,0.2,0.4,0.3,0.4l2.4-0.4l0.7,4.7l-3.6,1
		l-3.4,1.7L5.9,44c0.1,0.2,0.2,0.3,0.4,0.2l3.5-0.6l3.4-0.9c0.4,1.4,0.7,2.3,0.8,2.4c0.1,0.1,0.4,0.1,0.5,0c0.2,0.3,0.4,0.8,0.5,0.8
		c0.1,0,0.1-0.5,0.1-0.9c0.1,0,0.3-0.1,0.4-0.3c0-0.1-0.2-1.1-0.4-2.5l3.4-0.9l3.3-1.2c0.2-0.1,0.3-0.2,0.2-0.4l-0.3-1.2l-3.8,0.2
		l-3.6,1l-1.6-4.4l2.3-0.9c0.1-0.1,0.1-0.3,0.1-0.5l-0.3-1.1l-2.3,0.4L12.1,34L11.2,31.3z"/>
	<path class="st13" d="M6,48.8l-0.2-0.7l-2.4-0.2L3.2,49c0,0.2,0,0.4,0.1,0.5l2.3,0.7l-1.2,4.5L0.8,54l-3.8,0.1l-0.2,1.2
		c0,0.2,0.1,0.3,0.3,0.4l3.4,0.9l3.4,0.6c-0.2,1.4-0.3,2.4-0.2,2.5C3.7,59.9,3.9,60,4,60c0.1,0.4,0,0.9,0.2,0.9
		c0.1,0,0.3-0.5,0.5-0.8c0.1,0,0.4,0,0.5-0.1c0.1-0.1,0.3-1.1,0.6-2.5l3.4,0.6l3.5,0.3c0.2,0,0.3,0,0.4-0.3l0.2-1.2l-3.6-1.4L6.1,55
		l0.3-4.7l2.4,0.2c0.1,0,0.2-0.2,0.3-0.4l0.2-1.2l-2.3-0.6l-0.4,0.5l0.2-2.8l0,0L6,48.8z"/>
	<path class="st12" d="M17.1,244.9l-0.7,0.1l-1.2,1.7l0.9,0.3l0.1,0l0.1,0l0.1,0l0.1,0l0.1,0l0.1,0l0,0l0,0l0,0l0,0l1.5-1.7l3.2,1.7
		l-2.1,2.6l-1.5,2.9l0.9,0.3l0,0l0,0l0,0l0,0l0,0l0,0l0,0l0,0l0.1,0l0,0l0,0l0,0l2.2-2.4l2-2.5c0.6,0.2,1,0.3,1.4,0.4
		c0.2,0,0.3,0.1,0.4,0.1c0.1,0,0.1,0,0.1,0c0,0,0,0,0,0c0,0,0,0,0,0l0,0l0,0l0.1,0l0.1,0l0.1,0l0.1,0l0,0c0,0,0.1-0.1,0.1-0.1
		c0.1,0,0.2,0,0.3,0c0.1,0,0.2,0,0.3,0c0.1,0,0.1,0,0.2,0l0,0l0,0l0,0l0,0l0,0l0,0l0,0l0,0l0,0l0,0c0,0,0,0,0,0l0,0l0,0l0,0l0,0l0,0
		l0,0l0,0l0,0c0,0,0,0-0.1-0.1c-0.1,0-0.1-0.1-0.2-0.1l-0.1-0.1l-0.1-0.1l0,0l0,0l0-0.1l0-0.1l0-0.1l0-0.1l0,0l0,0l0,0l0,0
		c0,0,0,0,0,0c0,0,0,0,0,0c0,0-0.1,0-0.1-0.1c-0.1,0-0.2-0.1-0.4-0.2c-0.3-0.1-0.7-0.3-1.3-0.6l2-2.5l1.8-2.6l0-0.1l0,0l0,0l0,0l0,0
		l0,0l0,0l0,0l0,0l0,0l0,0l0,0l0,0l0,0l-0.9-0.3l-2.7,2.4l-2.1,2.6l-3.8-1l1.2-1.8l0,0l0,0l0,0l0,0l0,0l0,0l0,0l0,0l0,0l0,0l0,0
		l-0.1,0l-0.9-0.3l-1.5,1.6l0.3,0.4l-2.2-0.6l0,0L17.1,244.9z"/>
	<path class="st12" d="M25.2,252.1L25.2,252.1l1.9,1l-0.5,0.2l-0.2,2.3l0.8,0.3l0.1,0l0.1,0l0,0l0,0l0,0l0,0l0,0l0,0l0,0l0,0l0,0
		l0,0l0.5-2.3l3.1,1.6l-0.5,3.6l0,3.8l0.8,0.3l0,0l0,0l0,0l0,0l0,0l0,0l0,0l0,0l0,0l0,0l0,0l0-0.1l0-0.1l0.7-3.3l0.5-3.4
		c0.5,0.1,0.9,0.3,1.2,0.3c0.2,0,0.3,0.1,0.4,0.1c0,0,0.1,0,0.1,0c0,0,0,0,0,0c0,0,0,0,0,0l0,0l0,0l0,0l0-0.1l0-0.1l0-0.1l0-0.1
		c0,0,0-0.1,0-0.1l0.1,0l0.1,0c0.1,0,0.1,0,0.2,0c0,0,0.1,0,0.1,0l0,0l0,0l0,0l0,0l0,0l0,0l0,0l0,0l0,0l0,0l0,0l0,0c0,0,0,0,0,0l0,0
		l0,0l0,0l0,0c0,0-0.1,0-0.1-0.1c-0.1,0-0.1-0.1-0.2-0.1l-0.1-0.1l-0.1-0.1c0,0,0-0.1,0-0.1l0-0.1l0-0.1l0-0.1l0-0.1l0-0.1l0,0l0,0
		c0,0,0,0,0,0c0,0,0,0,0,0c0,0-0.1,0-0.1-0.1c-0.1,0-0.2-0.1-0.4-0.2c-0.3-0.1-0.7-0.3-1.2-0.5l0.5-3.3l0.3-3.5l0-0.1l0-0.1l0-0.1
		l0-0.1l0,0l0,0l0,0l0,0l0,0l0,0l0,0l0,0l-0.8-0.3l-1.1,3.4l-0.5,3.6l-3.3-0.7l0.2-2.4l0,0l0,0l0,0l0,0l0,0l0,0l0,0l0,0l0,0l-0.1,0
		l-0.8-0.3l-0.5,2.2l0.4,0.5L25.2,252.1z"/>
	<path class="st12" d="M5.9,17.1L5.9,17.1l-1,2.4l-0.2-0.6l-2.3-0.4l-0.3,1l0,0.1l0,0.1l0,0.1l0,0.1l0,0.1l0,0l0,0l0,0l0,0l0,0l0,0
		l2.3,0.8l-1.7,4l-3.5-0.9l-3.8-0.3l-0.3,1l0,0l0,0l0,0l0,0l0,0l0,0l0,0l0,0l0,0l0,0l0,0l0,0l0.1,0l0.1,0l3.3,1.2l3.3,0.9
		c-0.2,0.6-0.3,1.2-0.4,1.5c0,0.2-0.1,0.4-0.1,0.5c0,0.1,0,0.1,0,0.1c0,0,0,0,0,0c0,0,0,0,0,0l0,0l0,0l0,0l0,0l0.1,0l0.1,0l0.1,0
		l0.1,0l0.1,0l0,0l0,0.1l0,0.1c0,0.1,0,0.2,0,0.3c0,0,0,0.1,0,0.1l0,0l0,0l0,0l0,0l0,0c0,0,0,0,0,0l0,0l0,0l0,0l0,0l0,0l0,0
		c0,0,0,0,0,0l0,0l0,0l0,0l0,0c0,0,0-0.1,0.1-0.1c0-0.1,0.1-0.2,0.1-0.2l0.1-0.1l0.1-0.1c0,0,0,0,0,0l0.1,0l0.1,0l0.1,0l0.1,0l0.1,0
		l0,0l0,0l0,0l0,0c0,0,0,0,0,0l0,0c0,0,0,0,0,0c0,0,0-0.1,0.1-0.1c0-0.1,0.1-0.3,0.2-0.4c0.1-0.4,0.3-0.9,0.6-1.5L7,28.3l3.5,0.6
		l0.1,0l0.1,0l0.1,0l0,0l0,0l0,0l0,0l0,0l0,0l0,0l0,0l0,0l0,0l0.3-1L7.8,26l-3.5-0.9l0.8-4.2l2.4,0.4l0,0l0,0l0,0l0,0l0,0l0,0l0,0
		l0,0l0-0.1l0-0.1l0-0.1l0.3-1l-2.2-0.8l-0.5,0.4L5.9,17.1z"/>
</g>
</svg>
