<?xml version="1.0" encoding="utf-8"?>
<!-- Generator: Adobe Illustrator 25.3.1, SVG Export Plug-In . SVG Version: 6.00 Build 0)  -->
<svg version="1.1" id="Layer_1" xmlns="http://www.w3.org/2000/svg" xmlns:xlink="http://www.w3.org/1999/xlink" x="0px" y="0px"
	 viewBox="0 0 419.7 252.9" style="enable-background:new 0 0 419.7 252.9;" xml:space="preserve">
<style type="text/css">
	.st0{fill:#00051C;}
	.st1{fill:#00063E;}
	.st2{fill:#FFE73E;}
	.st3{fill:#001826;}
	.st4{fill:#010900;}
	.st5{fill:#0E0900;}
	.st6{fill:#CC3333;}
	.st7{fill:#090800;}
	.st8{fill:#FFF451;}
	.st9{fill:#FFF8B6;}
	.st10{fill:#751CFF;}
	.st11{fill:#480051;}
</style>
<path class="st0" d="M-18.2,240.6c-0.2,2.2,64.5,11.9,142.6,11.3c69.8-0.6,128.8-9.2,128.6-11.3c-0.1-1.7-43.2,1.7-122.9,2.1
	C34,243.1-18,238.7-18.2,240.6z"/>
<path class="st1" d="M10.2,86.8c1.9-12.5,4.5-16.5,5.5-22.8c0.1-0.5,0.3-3.3,0.3-6.5c0.2-21.9-10.1-31.1-5.8-38.9
	c2.4-4.3,12.3-6,32.2-9.6c12.2-2.2,16.2-2.1,16.3-3.4C58.9,3,40.3-2.8,20.7-0.6C12.4,0.3,8.2,0.8,4.5,3.2c-13.4,9-7,34.3-4.5,79.4
	c0.2,4.1,4.6,82.5,7.4,82.3c1.7-0.1,2.2-29.5,2.2-42.7C9.6,101.4,8.4,98.3,10.2,86.8z"/>
<path class="st2" d="M407.8,254.1c1.2,0,2.1-8.9,6-69.4c1.6-24.8,2.6-41.8,3.1-49.1c4.4-72.3,8.4-114.4-1.2-117
	c-4.2-1.1-7.3,6.6-18.7,7.7c-10.2,1-16.1-4.3-17.8-2.4c-3.2,3.7,21.1,20,28.3,45.6c6,21.3-6,26.8-8.9,66.1
	c-0.6,7.9,0.8,26.8,3.6,64.5C406.2,251.6,407.2,254.1,407.8,254.1z"/>
<g>
	<rect x="836" y="117.8" class="st3" width="107.3" height="5.4"/>
	<rect x="622.9" y="134.4" class="st4" width="7.9" height="56.2"/>
	<rect x="631.9" y="345" class="st5" width="180.4" height="13.7"/>
	<rect x="622.2" y="185.2" class="st6" width="14.4" height="175.5"/>
	<rect x="640.2" y="111" class="st6" width="262.1" height="9.4"/>
	<rect x="1031.1" y="124.7" class="st6" width="10.1" height="107.3"/>
	<rect x="628.6" y="105.2" class="st6" width="7.9" height="56.2"/>
	<rect x="934.3" y="335.5" class="st6" width="79.2" height="9.4"/>
	<rect x="1018.9" y="224.8" class="st6" width="7.9" height="135.4"/>
	<rect x="639.4" y="136.6" class="st6" width="7.9" height="56.2"/>
	<rect x="1029.2" y="283.3" class="st6" width="4.3" height="78.6"/>
	<rect x="1036.7" y="235.9" class="st6" width="5" height="106.2"/>
	<rect x="776.5" y="351.6" class="st6" width="240.1" height="5.8"/>
	<rect x="847.2" y="339.4" class="st6" width="79.2" height="9.4"/>
	<rect x="733.4" y="340.7" class="st6" width="79.2" height="9.4"/>
	<rect x="1024.4" y="102.8" class="st7" width="2.9" height="260.2"/>
	<rect x="934.6" y="117.5" class="st6" width="107.3" height="5.8"/>
	<rect x="906.8" y="107" class="st6" width="123.8" height="7.6"/>
</g>
<path class="st8" d="M11.9,135.3c2.7-28,2.4-23.2,3-30.7c3.7-44.3,2.4-67.5,5.3-67.8c1.8-0.1,4.4,8.5,5.3,15.8
	c1.9,15.6-4.7,18.5-2.6,31.3c1.9,11.5,8.3,15.7,5.5,23.7c-1.4,3.9-3.7,5.2-6,8c-7.8,9.7-4.6,23.5-3.3,34.8c2.9,25-5.7,22.5-5,59.7
	c0.5,25.7,4.1,40.1,0.9,41.1c-3,0.9-10.9-8.5-11.4-18.1c-0.2-4.8,1.4-9.9,1.7-11c1.3-4.2,2.2-4.2,2.9-6.7c2-7.3-4.1-11.7-5.4-20.2
	c-0.8-5.8,4-8.8,3.6-16.3C5.9,164.3,10.5,149.9,11.9,135.3z"/>
<path class="st9" d="M186.8,29.9c54.4-0.3,100.2-9.2,100-11.3c-0.1-1.5-21.1,1.4-59.5-1.4c-19.5-1.4-25.6-3-41.8-2.7
	c-16.9,0.3-21.9,2.3-40.3,4c-36.1,3.4-58.4-0.2-58.6,1C86.5,20.7,129.3,30.2,186.8,29.9z"/>
<path class="st10" d="M329,241.2c28.1,1.2,23.3,1.1,30.8,1.4c44.4,1.3,67.6-1.3,68,1.6c0.2,1.8-8.3,4.8-15.5,6.1
	c-15.4,2.7-18.7-3.7-31.4-0.9c-11.4,2.5-15.2,9.2-23.4,6.7c-4-1.2-5.4-3.4-8.4-5.6c-10.1-7.3-23.7-3.3-34.9-1.4
	c-24.8,4.3-22.8-4.5-59.8-1.7c-25.6,1.9-39.9,6.3-40.9,3.2c-1-3,7.9-11.3,17.4-12.3c4.8-0.5,10,0.8,11.1,1.1c4.2,1.1,4.4,2,6.9,2.5
	c7.4,1.6,11.4-4.8,19.9-6.5c5.8-1.1,9,3.5,16.5,2.7C299.7,236.8,314.3,240.6,329,241.2z"/>
<path class="st6" d="M101.2,5.2C46.9,8.6,1.7,20.1,2,22.3c0.4,2.6,29.4,4.8,59.5-2.1c20.7-4.7,23.7-9.6,40.2-9.9
	c17-0.3,20.6,4.7,41.6,3.7c10.5-0.5,11.9-2,28.8-3.2c18.7-1.2,29.5-0.4,29.6-1.2C201.8,8.5,158.6,1.6,101.2,5.2z"/>
<path class="st11" d="M420.6,8c0.1,1.2-2.5,3.1-7.7,6.8c0,0-4.5,3.2-9.1,5.3C391.1,25.7,365.7,2.2,339,4.7
	c-14.4,1.3-12.7,8.7-31.2,11.5c-15.8,2.4-23.5-1.9-44.5-5.4c-32.5-5.3-53.4-1.4-53.4-2.8c-0.1-2.2,48.2-9.5,105.4-9.5
	C376.3-1.6,420.3,2.6,420.6,8z"/>
</svg>
